<?xml version="1.0" standalone="no"?><!DOCTYPE svg PUBLIC "-//W3C//DTD SVG 1.1//EN" "http://www.w3.org/Graphics/SVG/1.1/DTD/svg11.dtd"><svg t="1594910154822" class="icon" viewBox="0 0 1121 1024" version="1.1" xmlns="http://www.w3.org/2000/svg" p-id="2703" xmlns:xlink="http://www.w3.org/1999/xlink" width="140.125" height="128"><defs><style type="text/css"></style></defs><path d="M48.761905 0h1024c29.257143 0 48.761905 19.504762 48.761905 48.761905v926.47619c0 29.257143-19.504762 48.761905-48.761905 48.761905H48.761905c-29.257143 0-48.761905-19.504762-48.761905-48.761905V48.761905c0-29.257143 19.504762-48.761905 48.761905-48.761905z" fill="#FFFFFF" p-id="2704"></path><path d="M48.761905 24.380952C34.133333 24.380952 24.380952 34.133333 24.380952 48.761905v926.47619c0 14.628571 9.752381 24.380952 24.380953 24.380953h1024c14.628571 0 24.380952-9.752381 24.380952-24.380953V48.761905c0-14.628571-9.752381-24.380952-24.380952-24.380953H48.761905zM48.761905 0h1024c29.257143 0 48.761905 19.504762 48.761905 48.761905v926.47619c0 29.257143-19.504762 48.761905-48.761905 48.761905H48.761905c-29.257143 0-48.761905-19.504762-48.761905-48.761905V48.761905c0-29.257143 19.504762-48.761905 48.761905-48.761905z" fill="#606567" p-id="2705"></path><path d="M292.571429 24.380952h48.761904v975.238096H292.571429z" fill="#C6C6C6" p-id="2706"></path><path d="M24.380952 287.695238v-24.380952h1072.761905v24.380952zM24.380952 546.133333v-19.504762h1072.761905v19.504762zM24.380952 789.942857v-19.504762h1072.761905v19.504762z" fill="#C6C6C6" p-id="2707"></path><path d="M292.571429 24.380952h512v243.809524H292.571429z" fill="#74A75E" p-id="2708"></path><path d="M292.571429 282.819048h512V536.380952H292.571429z" fill="#C1C35C" p-id="2709"></path><path d="M292.571429 536.380952h512v243.809524H292.571429z" fill="#F1C05A" p-id="2710"></path><path d="M292.571429 770.438095h512v234.057143H292.571429z" fill="#D96F58" p-id="2711"></path><path d="M804.571429 24.380952h24.380952v975.238096h-24.380952zM316.952381 263.314286h487.619048v24.380952h-487.619048zM316.952381 526.628571h487.619048v24.380953h-487.619048zM316.952381 770.438095h487.619048v24.380953h-487.619048zM292.571429 24.380952h24.380952v975.238096H292.571429z" fill="#919191" p-id="2712"></path><path d="M560.761905 121.904762h195.047619v48.761905h-195.047619zM560.761905 365.714286h195.047619v48.761904h-195.047619zM560.761905 609.52381h195.047619v48.761904h-195.047619zM560.761905 853.333333h195.047619v48.761905h-195.047619z" fill="#8B823B" p-id="2713"></path></svg>