<?xml version="1.0" standalone="no"?><!DOCTYPE svg PUBLIC "-//W3C//DTD SVG 1.1//EN" "http://www.w3.org/Graphics/SVG/1.1/DTD/svg11.dtd"><svg t="1615300510649" class="icon" viewBox="0 0 1024 1024" version="1.1" xmlns="http://www.w3.org/2000/svg" p-id="2153" xmlns:xlink="http://www.w3.org/1999/xlink" width="32" height="32"><defs><style type="text/css"></style></defs><path d="M416 0H64C28.7 0 0 28.7 0 64v352c0 35.3 28.7 64 64 64h352c35.3 0 64-28.7 64-64V64c0-35.3-28.7-64-64-64z m0 416H64V64h352v352zM960 0H608c-35.3 0-64 28.7-64 64v352c0 35.3 28.7 64 64 64h352c35.3 0 64-28.7 64-64V64c0-35.3-28.7-64-64-64z m0 416H608V64h352v352zM416 544H64c-35.3 0-64 28.7-64 64v352c0 35.3 28.7 64 64 64h352c35.3 0 64-28.7 64-64V608c0-35.3-28.7-64-64-64z m0 416H64V608h352v352z m192-134.1v-89.4c0-17.7-14.3-32-32-32s-32 14.3-32 32v89.4c0 17.7 14.3 32 32 32s32-14.3 32-32zM697.3 544h-89.4c-17.7 0-32 14.3-32 32s14.4 32 32 32h89.3c17.7 0 32-14.3 32-32s-14.2-32-31.9-32z m262.8 416h-89.5c-17.7 0-32 14.3-32 32s14.3 32 32 32h89.5c17.7 0 32-14.3 32-32s-14.3-32-32-32z m-84-352H960c1.8 0.3 3.7 0.5 5.5 0.5 15.3 0 28.8-11 31.5-26.6 3-17.4-8.7-34-26.1-37-3.6-0.6-7.2-0.9-10.9-0.9h-83.9c-17.7 0-32 14.3-32 32s14.3 32 32 32zM691.8 960h-83.9c-17.4-3-34 8.6-37 26s8.6 34 26 37c3.6 0.6 7.3 0.9 11 0.9h83.8c17.7 0 32-14.3 32-32S709.5 960 691.8 960zM992 710c-17.7 0-32 14.3-32 32v89.4c0 17.7 14.3 32 32 32s32-14.3 32-32V742c0-17.7-14.3-32-32-32z" p-id="2154"></path></svg>