<?xml version="1.0" standalone="no"?><!DOCTYPE svg PUBLIC "-//W3C//DTD SVG 1.1//EN" "http://www.w3.org/Graphics/SVG/1.1/DTD/svg11.dtd"><svg t="1598766860613" class="icon" viewBox="0 0 1024 1024" version="1.1" xmlns="http://www.w3.org/2000/svg" p-id="39222" width="32" height="32" xmlns:xlink="http://www.w3.org/1999/xlink"><defs><style type="text/css"></style></defs><path d="M481.8 542.7c8.6 8.6 20 13 30.3 13 11.3 0 22.5-4.4 30.3-13l379.2-378.9c17.4-17.2 17.4-43.9 0-61.4-17.1-17.2-44.2-17.2-61.4 0L512 451 164 103.2c-17.4-17.2-44.3-17.2-61.6 0s-17.3 44.1 0 61.5l379.4 378z" fill="#0CA294" p-id="39223"></path><path d="M860 481.3L512 829.1 164 481.3c-17.4-17.4-44.2-17.4-61.6 0-17.3 17.4-17.3 44.1 0 61.4l379.3 378.8c8.6 8.8 20 13.2 30.3 13.2 11.3 0 22.5-4.4 30.3-13.2l379.2-378.8c17.4-17.2 17.4-43.9 0-61.4-17.1-17.4-44-17.4-61.5 0z" fill="#0CA294" p-id="39224"></path></svg>