<?xml version="1.0" standalone="no"?><!DOCTYPE svg PUBLIC "-//W3C//DTD SVG 1.1//EN" "http://www.w3.org/Graphics/SVG/1.1/DTD/svg11.dtd"><svg t="1598967500721" class="icon" viewBox="0 0 1024 1024" version="1.1" xmlns="http://www.w3.org/2000/svg" p-id="4983" xmlns:xlink="http://www.w3.org/1999/xlink" width="32" height="32"><defs><style type="text/css"></style></defs><path d="M778.752 866.202H250.368c-15.36 0-28.058-12.596-28.058-28.058V214.528c0-15.36 12.596-28.058 28.058-28.058h528.384c15.36 0 28.058 12.596 28.058 28.058v623.616c-0.103 15.462-12.698 28.058-28.058 28.058z m0 0" fill="#3173E7" p-id="4984"></path><path d="M778.752 839.578H250.368c-15.36 0-28.058-12.596-28.058-28.058V187.904c0-15.36 12.596-28.058 28.058-28.058h528.384c15.36 0 28.058 12.596 28.058 28.058V811.52c-0.103 15.462-12.698 28.058-28.058 28.058z m0 0" fill="#E7F5FD" p-id="4985"></path><path d="M778.854 159.949H743.63c15.36 0 27.955 12.697 27.955 28.057v623.412c0 15.462-12.493 28.057-27.955 28.057h35.225c15.36 0 27.956-12.697 27.956-28.057V188.006c-0.103-15.36-12.698-28.057-27.956-28.057z m0 0" fill="#F0F8FC" p-id="4986"></path><path d="M835.482 201.523h-647.27c-9.524 0-17.204-7.782-17.204-17.203v-8.806c0-9.524 7.782-17.204 17.203-17.204h647.373c9.523 0 17.203 7.783 17.203 17.204v8.806c-0.102 9.42-7.782 17.203-17.305 17.203z m0 0" fill="#3173E7" p-id="4987"></path><path d="M832.82 158.106H190.873c-10.957 0-19.968 6.656-19.968 14.848v13.21c0-8.193 9.01-14.849 19.968-14.849h641.843c10.957 0 19.968 6.656 19.968 14.848v-13.21c0-8.191-8.909-14.847-19.866-14.847z m0 0" fill="#589EE4" p-id="4988"></path><path d="M202.957 186.675v-13.619c0-8.192 9.011-14.848 19.968-14.848h-31.949c-10.957 0-19.968 6.656-19.968 14.848v13.722c0 8.192 9.011 14.848 19.968 14.848h31.949c-11.06-0.103-19.968-6.861-19.968-14.95z m0 0" fill="#3173E7" p-id="4989"></path><path d="M832.614 158.208h-43.93c10.958 0 19.969 6.656 19.969 14.848v13.722c0 8.192-9.011 14.848-19.968 14.848h43.93c10.956 0 19.967-6.656 19.967-14.848v-13.722c0-8.192-9.01-14.848-19.968-14.848z m0 0" fill="#8ABBEC" p-id="4990"></path><path d="M852.582 186.368v-13.005c-0.512-3.789-2.15-7.168-4.71-9.83-3.686-3.277-9.216-5.325-15.36-5.325h-43.93c10.957 0 19.968 6.656 19.968 14.848v13.722c0 8.192-9.01 14.848-19.968 14.848h43.93c6.144 0 11.674-2.048 15.36-5.325 2.56-2.765 4.3-6.144 4.71-9.933z m0 0" fill="#6F9DEE" p-id="4991"></path><path d="M832.614 158.208h-43.93c10.138 0 18.638 5.734 19.866 13.005h24.27c10.24 0 18.636 5.734 19.865 13.107v-10.957c-0.512-3.789-2.15-7.168-4.71-9.83-3.687-3.277-9.217-5.325-15.36-5.325z m0 0" fill="#8ABBEC" p-id="4992"></path><path d="M277.914 573.645l71.27-130.765c9.318-18.534 32.563-25.293 50.586-14.746l97.28 57.14c10.035 5.836 22.732 4.403 31.027-3.482l141.005-145.1c25.497-22.631 65.228-1.946 65.228 20.582l-1.843 248.115c0 14.131-11.571 25.6-25.907 25.6H312.934c-19.456 0-33.792-14.541-35.84-31.744-0.716-6.656-2.457-19.047 0.82-25.6z m0 0" fill="#3173E7" p-id="4993"></path><path d="M280.678 562.688l68.608-136.397c9.319-18.534 32.564-25.293 50.586-14.745l97.28 57.139c10.035 5.837 22.733 4.403 31.027-3.482l141.005-145.1c25.498-22.631 65.229-1.946 65.229 20.582L732.467 588.8c0 14.131-11.571 25.6-25.907 25.6H312.934c-26.726-0.205-44.134-28.058-32.256-51.712z m0 0" fill="#5EADEF" p-id="4994"></path><path d="M282.42 653.414L388.3 519.475c7.68-9.728 21.198-12.493 32.052-6.349l98.918 55.706c9.626 5.427 21.607 3.891 29.696-3.686l141.722-134.964c16.077-15.36 42.496-3.89 42.496 18.535v220.672c0 14.029-11.264 25.395-25.19 25.395H302.08c-16.589 0-27.34-15.155-24.883-29.696 0.41-2.253-1.229-12.902-0.205-14.95 0.82-1.946 4.198 4.915 5.427 3.276z m0 0" fill="#F99403" p-id="4995"></path><path d="M282.42 636.416l105.88-133.94c7.68-9.727 21.198-12.492 32.052-6.348l98.918 55.706c9.626 5.427 21.607 3.89 29.696-3.687l141.722-134.963c16.077-15.36 42.496-3.891 42.496 18.534V652.39c0 14.03-11.264 25.396-25.19 25.396H302.08c-21.094-0.103-32.768-24.679-19.66-41.37z m0 0" fill="#FCCA4C" p-id="4996"></path><path d="M471.757 296.55H300.134a16.257 16.257 0 0 1-16.281-16.281v-0.205c0-9.011 7.27-16.282 16.281-16.282h171.623c9.011 0 16.281 7.27 16.281 16.282v0.205c0 9.011-7.27 16.281-16.281 16.281zM725.914 779.47H292.25c-4.71 0-8.5-3.891-8.5-8.5v-4.915c0-4.71 3.892-8.499 8.5-8.499h433.664c4.71 0 8.499 3.891 8.499 8.5v4.915c0 4.608-3.789 8.499-8.5 8.499zM587.98 296.55H547.84a16.257 16.257 0 0 1-16.282-16.281v-0.205c0-9.011 7.27-16.282 16.282-16.282h40.038c9.012 0 16.282 7.27 16.282 16.282v0.205c0.205 9.011-7.168 16.281-16.18 16.281z m0 0" fill="#5EADEF" p-id="4997"></path></svg>