<?xml version="1.0" standalone="no"?><!DOCTYPE svg PUBLIC "-//W3C//DTD SVG 1.1//EN" "http://www.w3.org/Graphics/SVG/1.1/DTD/svg11.dtd"><svg t="1598456366479" class="icon" viewBox="0 0 1024 1024" version="1.1" xmlns="http://www.w3.org/2000/svg" p-id="12296" xmlns:xlink="http://www.w3.org/1999/xlink" width="32" height="32"><defs><style type="text/css"></style></defs><path d="M39.039805 0h945.91527a39.679802 39.679802 0 0 1 39.039805 39.679802V985.595072a39.039805 39.039805 0 0 1-39.679802 38.399808H39.039805a39.039805 39.039805 0 0 1-39.039805-38.399808V39.679802A39.679802 39.679802 0 0 1 39.039805 0z m906.875465 78.07961h-252.798736v867.83566h252.15874V78.07961z m-299.518502 0H378.238109v867.83566h268.158659V78.07961z m-315.518422 0H78.719606v867.83566h252.15874V78.07961z" fill="#848CA1" p-id="12297"></path><path d="M0 668.796656a24.319878 24.319878 0 0 0 24.319878 24.319878h975.355124a24.959875 24.959875 0 0 0 24.319878-24.319878 24.319878 24.319878 0 0 0-24.319878-24.319878H24.959875a24.959875 24.959875 0 0 0-24.959875 24.319878zM0 355.198224a24.319878 24.319878 0 0 0 24.319878 24.319878h975.355124a24.959875 24.959875 0 0 0 24.319878-24.319878 24.319878 24.319878 0 0 0-24.319878-24.319878H24.959875a24.959875 24.959875 0 0 0-24.959875 24.319878z" fill="#848CA1" p-id="12298"></path></svg>