<?xml version="1.0" encoding="utf-8"?>
<!-- Generator: Adobe Illustrator 16.0.0, SVG Export Plug-In . SVG Version: 6.00 Build 0)  -->
<!DOCTYPE svg PUBLIC "-//W3C//DTD SVG 1.1//EN" "http://www.w3.org/Graphics/SVG/1.1/DTD/svg11.dtd">
<svg version="1.1" id="图层_1" xmlns="http://www.w3.org/2000/svg" xmlns:xlink="http://www.w3.org/1999/xlink" x="0px" y="0px"
	 width="32px" height="32px" viewBox="0 0 32 32" enable-background="new 0 0 32 32" xml:space="preserve">
<g>
	<path d="M197.173,75.691h0.96c-0.408,0.832-0.722,1.772-0.942,2.82c-0.22,1.049-0.33,2.104-0.33,3.168
		c0,2.088,0.328,3.925,0.984,5.509h-0.912c-0.632-1.553-0.948-3.353-0.948-5.4C195.984,79.572,196.381,77.54,197.173,75.691z"/>
	<path d="M199.381,76.893c0-0.185,0.065-0.344,0.197-0.48c0.133-0.137,0.29-0.204,0.475-0.204c0.191,0,0.354,0.065,0.485,0.198
		c0.133,0.132,0.198,0.294,0.198,0.486c0,0.184-0.065,0.342-0.198,0.474c-0.132,0.132-0.294,0.198-0.485,0.198
		c-0.185,0-0.342-0.068-0.475-0.205C199.446,77.225,199.381,77.068,199.381,76.893z M199.645,78.668h0.828v6.372h-0.828V78.668z"/>
	<path d="M202.165,78.668h0.828v1.141c0.655-0.873,1.452-1.309,2.388-1.309c0.48,0,0.912,0.131,1.296,0.391s0.656,0.6,0.816,1.02
		s0.24,1.038,0.24,1.854v3.276h-0.816v-3.036c0-0.744-0.034-1.248-0.103-1.512c-0.067-0.264-0.172-0.488-0.312-0.672
		s-0.318-0.324-0.534-0.42s-0.468-0.145-0.756-0.145c-0.328,0-0.64,0.076-0.936,0.229c-0.297,0.152-0.549,0.363-0.757,0.636
		s-0.348,0.552-0.42,0.84c-0.071,0.288-0.107,0.868-0.107,1.74v2.34h-0.828V78.668z"/>
	<path d="M215.845,76.208v8.832h-0.805v-1.092c-0.728,0.872-1.58,1.308-2.556,1.308c-0.904,0-1.676-0.332-2.316-0.996
		c-0.64-0.664-0.96-1.464-0.96-2.4c0-0.92,0.324-1.709,0.973-2.369c0.647-0.66,1.424-0.99,2.327-0.99
		c1.04,0,1.885,0.443,2.532,1.332v-3.624H215.845z M215.088,81.896c0-0.729-0.239-1.344-0.72-1.849
		c-0.479-0.504-1.08-0.756-1.8-0.756s-1.322,0.258-1.806,0.774c-0.484,0.516-0.727,1.121-0.727,1.818
		c0,0.703,0.248,1.315,0.744,1.836c0.496,0.52,1.092,0.779,1.788,0.779c0.656,0,1.24-0.246,1.752-0.738
		S215.088,82.648,215.088,81.896z"/>
	<path d="M223.068,82.977l0.695,0.359c-0.688,1.28-1.704,1.92-3.048,1.92c-0.96,0-1.752-0.33-2.376-0.99s-0.936-1.449-0.936-2.369
		c0-0.937,0.313-1.736,0.941-2.4s1.402-0.996,2.322-0.996c0.928,0,1.706,0.309,2.334,0.924c0.628,0.616,0.954,1.457,0.979,2.52
		h-5.736c0.023,0.769,0.266,1.387,0.726,1.854s1.019,0.702,1.674,0.702C221.724,84.5,222.532,83.992,223.068,82.977z
		 M223.068,81.236c-0.112-0.608-0.393-1.084-0.841-1.428c-0.447-0.344-0.964-0.517-1.548-0.517c-1.199,0-1.983,0.647-2.352,1.944
		H223.068z"/>
	<path d="M227.461,82.376l-1.849,2.664h-0.972l2.328-3.36l-2.1-3.012h0.983l1.608,2.305l1.596-2.305h0.984l-2.088,3l2.363,3.372
		h-0.996L227.461,82.376z"/>
	<path d="M232.032,75.691c0.792,1.849,1.188,3.881,1.188,6.097c0,2.048-0.316,3.848-0.948,5.4h-0.912
		c0.656-1.584,0.984-3.421,0.984-5.509c0-1.063-0.11-2.119-0.33-3.168c-0.221-1.048-0.534-1.988-0.942-2.82H232.032z"/>
</g>
<g>
	<path stroke="#000000" stroke-width="0.5" stroke-miterlimit="10" d="M9.082,10.728c0-0.189-0.013-0.351-0.04-0.485
		c-0.026-0.135-0.075-0.244-0.147-0.329S8.723,9.768,8.596,9.73C8.47,9.692,8.308,9.673,8.111,9.673c-0.265,0-0.605,0.03-1.019,0.09
		l-0.06-0.5c0.583-0.149,1.077-0.26,1.483-0.334c0.406-0.075,0.746-0.112,1.019-0.112c0.269,0,0.48,0.035,0.633,0.105
		c0.152,0.07,0.266,0.175,0.34,0.313c0.075,0.139,0.12,0.309,0.136,0.51s0.024,0.43,0.024,0.688c0,0.068-0.003,0.221-0.009,0.458
		c-0.006,0.237-0.014,0.542-0.024,0.914c-0.01,0.372-0.023,0.803-0.04,1.293c-0.016,0.49-0.032,1.024-0.048,1.601
		c-0.016,0.577-0.034,1.188-0.054,1.833c-0.021,0.646-0.041,1.309-0.061,1.99c-0.02,0.681-0.041,1.372-0.063,2.075
		c-0.022,0.701-0.043,1.395-0.063,2.082l-1.429,0.182L8.768,22.85c0.048-1.158,0.092-2.26,0.13-3.303s0.071-2.056,0.1-3.039
		c0.028-0.982,0.049-1.949,0.063-2.9C9.075,12.657,9.082,11.697,9.082,10.728z M12.031,15.052c0.506,0.869,0.965,1.623,1.375,2.265
		c0.41,0.641,0.784,1.197,1.121,1.67c0.338,0.473,0.644,0.871,0.917,1.197s0.526,0.605,0.76,0.838
		c0.169,0.17,0.326,0.313,0.474,0.432c0.146,0.119,0.287,0.215,0.424,0.289s0.27,0.129,0.398,0.16s0.262,0.049,0.398,0.049
		c0.16,0,0.33-0.021,0.51-0.061c0.178-0.041,0.377-0.096,0.594-0.164l0.168,0.496c-0.289,0.119-0.553,0.225-0.793,0.316
		c-0.238,0.09-0.457,0.166-0.656,0.229s-0.381,0.109-0.547,0.139c-0.164,0.029-0.316,0.045-0.457,0.045
		c-0.137,0-0.267-0.016-0.389-0.049c-0.123-0.031-0.243-0.078-0.362-0.141c-0.118-0.063-0.238-0.141-0.358-0.234
		c-0.121-0.096-0.247-0.205-0.38-0.33c-0.222-0.205-0.478-0.48-0.77-0.828c-0.291-0.348-0.621-0.785-0.989-1.309
		c-0.368-0.525-0.777-1.146-1.227-1.863c-0.45-0.719-0.945-1.547-1.483-2.488l0.006-0.078l0.446-0.633
		c0.655-0.933,1.262-1.784,1.821-2.554c0.559-0.77,1.084-1.429,1.577-1.978c0.492-0.549,0.961-0.974,1.405-1.275
		c0.443-0.302,0.88-0.452,1.312-0.452c0.184,0,0.346,0.025,0.482,0.075s0.25,0.118,0.34,0.202s0.156,0.183,0.199,0.295
		c0.043,0.112,0.063,0.231,0.063,0.355c0,0.193-0.045,0.386-0.139,0.579c-0.092,0.193-0.225,0.356-0.396,0.488h-0.049
		c-0.156-0.168-0.318-0.284-0.486-0.347c-0.166-0.062-0.33-0.093-0.49-0.093c-0.326,0-0.674,0.127-1.044,0.383
		c-0.369,0.255-0.759,0.6-1.166,1.034c-0.409,0.434-0.831,0.939-1.267,1.514C12.936,13.8,12.489,14.409,12.031,15.052z"/>
</g>
<g>
	<path d="M22.217,19.518c0,0.173-0.006,0.358-0.018,0.556s-0.025,0.397-0.042,0.602c-0.017,0.203-0.034,0.406-0.054,0.608
		c-0.019,0.203-0.037,0.395-0.053,0.575c-0.017,0.181-0.031,0.347-0.042,0.498c-0.012,0.151-0.018,0.278-0.018,0.38
		c0,0.303,0.058,0.524,0.172,0.664c0.114,0.141,0.268,0.21,0.458,0.21c0.217,0,0.438-0.116,0.664-0.349
		c0.227-0.233,0.443-0.574,0.649-1.021c0.206-0.448,0.382-0.951,0.526-1.511c0.146-0.559,0.238-1.161,0.279-1.808l0.81-0.099
		l0.061,0.004c-0.022,0.241-0.044,0.498-0.063,0.769c-0.02,0.271-0.036,0.542-0.052,0.813s-0.026,0.536-0.034,0.796
		s-0.012,0.499-0.012,0.718c0,0.415,0.024,0.754,0.072,1.018c0.049,0.264,0.111,0.471,0.188,0.622
		c0.076,0.152,0.163,0.256,0.262,0.313c0.098,0.058,0.196,0.086,0.296,0.086c0.059,0,0.116-0.008,0.174-0.023
		c0.057-0.015,0.111-0.033,0.162-0.055s0.097-0.045,0.139-0.071c0.042-0.025,0.079-0.048,0.109-0.068l0.126,0.176
		c-0.074,0.076-0.158,0.148-0.252,0.216c-0.095,0.067-0.193,0.126-0.298,0.176s-0.214,0.088-0.328,0.116
		c-0.115,0.028-0.23,0.042-0.348,0.042c-0.147,0-0.291-0.029-0.43-0.088s-0.262-0.156-0.368-0.294
		c-0.107-0.138-0.193-0.32-0.258-0.55c-0.065-0.229-0.098-0.514-0.098-0.855c0-0.109,0.003-0.22,0.008-0.332s0.013-0.23,0.023-0.354
		c0.01-0.125,0.023-0.26,0.04-0.403c0.016-0.144,0.036-0.302,0.059-0.476l-0.042-0.008c-0.173,0.64-0.36,1.175-0.563,1.607
		c-0.202,0.434-0.409,0.782-0.622,1.047c-0.212,0.265-0.426,0.453-0.64,0.566s-0.417,0.17-0.61,0.17
		c-0.146,0-0.284-0.024-0.418-0.074s-0.253-0.131-0.357-0.244s-0.188-0.263-0.25-0.449c-0.063-0.186-0.094-0.414-0.094-0.687
		c0-0.179,0.011-0.386,0.031-0.621c0.02-0.235,0.042-0.485,0.066-0.752c0.024-0.266,0.047-0.541,0.066-0.824
		c0.021-0.284,0.031-0.564,0.031-0.842c0-0.112-0.004-0.209-0.012-0.291c-0.008-0.081-0.024-0.148-0.05-0.202
		c-0.025-0.053-0.063-0.093-0.112-0.118s-0.118-0.038-0.204-0.038c-0.087,0-0.199,0.013-0.338,0.038s-0.285,0.06-0.438,0.104
		l-0.058-0.275c0.209-0.073,0.403-0.138,0.583-0.192c0.179-0.055,0.34-0.101,0.48-0.136c0.142-0.036,0.261-0.063,0.359-0.08
		c0.098-0.018,0.17-0.027,0.216-0.027c0.091,0,0.166,0.017,0.225,0.05s0.105,0.082,0.142,0.146c0.035,0.063,0.061,0.14,0.074,0.229
		C22.209,19.302,22.217,19.403,22.217,19.518z"/>
</g>
</svg>
