<?xml version="1.0" standalone="no"?><!DOCTYPE svg PUBLIC "-//W3C//DTD SVG 1.1//EN" "http://www.w3.org/Graphics/SVG/1.1/DTD/svg11.dtd"><svg t="1496132119272" class="icon" style="" viewBox="0 0 1024 1024" version="1.1" xmlns="http://www.w3.org/2000/svg" p-id="10525" xmlns:xlink="http://www.w3.org/1999/xlink" width="200" height="200"><defs><style type="text/css"></style></defs><path d="M174.208 195.299556l133.717333 0 0 133.717333-133.717333 0L174.208 195.299556 174.208 195.299556zM174.208 195.299556" fill="#5f6477" p-id="10526"></path><path d="M385.336889 234.012444l464.455111 0 0 45.738667L385.336889 279.751111 385.336889 234.012444 385.336889 234.012444zM385.336889 234.012444" fill="#5f6477" p-id="10527"></path><path d="M174.208 445.141333l133.717333 0 0 133.717333-133.717333 0L174.208 445.141333 174.208 445.141333zM174.208 445.141333" fill="#5f6477" p-id="10528"></path><path d="M385.336889 483.854222l464.455111 0 0 45.724444L385.336889 529.578667 385.336889 483.854222 385.336889 483.854222zM385.336889 483.854222" fill="#5f6477" p-id="10529"></path><path d="M174.208 694.954667l133.717333 0 0 133.731556-133.717333 0L174.208 694.954667 174.208 694.954667zM174.208 694.954667" fill="#5f6477" p-id="10530"></path><path d="M385.336889 733.667556l464.455111 0 0 45.752889L385.336889 779.420444 385.336889 733.667556 385.336889 733.667556zM385.336889 733.667556" fill="#5f6477" p-id="10531"></path></svg>