<?xml version="1.0" standalone="no"?><!DOCTYPE svg PUBLIC "-//W3C//DTD SVG 1.1//EN" "http://www.w3.org/Graphics/SVG/1.1/DTD/svg11.dtd"><svg t="1496131907473" class="icon" style="" viewBox="0 0 1024 1024" version="1.1" xmlns="http://www.w3.org/2000/svg" p-id="9302" xmlns:xlink="http://www.w3.org/1999/xlink" width="200" height="200"><defs><style type="text/css"></style></defs><path d="M515.376836 811.463975c-102.533027-7.879285-190.126112-42.466274-266.565404-100.793445-62.522634-47.68502-117.984611-103.965624-167.818527-165.362646-17.702808-21.795943-25.377436-42.261617-4.502448-67.127411 72.243829-85.955831 148.78545-165.362646 250.192865-219.392026 167.511542-89.434996 317.013291-49.424603 457.203158 56.996902 58.736484 44.615169 109.798341 98.951534 156.97172 156.255421 19.954032 24.251824 23.330868 45.84311 1.637254 71.015889-81.555711 94.858399-167.306885 184.191066-286.007795 233.820326C609.31428 796.72869 559.68502 803.891676 515.376836 811.463975zM510.976716 754.67173c40.931348 2.967523 82.27201-4.195463 122.180074-21.284301 100.998101-43.387229 178.051364-117.063655 250.602178-196.675127 18.316778-20.158689 15.451584-39.396423-2.148896-58.429499-63.238933-68.45768-128.933746-134.459478-212.740682-177.642051-108.672729-55.87129-217.8571-54.336365-325.19956 4.809433-78.281203 43.182572-140.701509 105.398221-201.177576 169.865094-20.977316 22.409913-23.433197 43.387229-1.023284 65.592485 36.940542 36.531228 70.811232 76.950934 111.537923 108.570401C327.808934 707.703008 406.49945 761.323074 510.976716 754.67173z" p-id="9303"></path><path d="M718.293994 510.516239c-1.125612 105.398221-103.044669 206.191666-208.033576 205.782352-106.933147-0.409313-209.67083-105.50055-206.907964-211.615069 2.762866-105.705206 105.807535-205.373039 210.387129-203.4288C619.240132 303.198961 719.419606 405.629659 718.293994 510.516239zM662.320376 512.051164c0.818627-86.67213-63.648246-154.004197-148.273808-154.822824C427.27211 356.409713 360.04237 420.876586 359.223743 505.502148c-0.818627 86.67213 63.648246 154.004197 148.273808 154.822824C594.067353 661.245928 661.501749 596.574398 662.320376 512.051164z" p-id="9304"></path><path d="M512.920955 453.826322c28.549615 9.823524 53.824723 26.093734 50.550215 58.838813-2.762866 28.24263-24.45648 51.061857-54.234036 48.912961-30.596183-2.148896-53.824723-24.45648-51.164185-56.689917C460.426501 476.236235 483.041071 459.352054 512.920955 453.826322z" p-id="9305"></path></svg>