<?xml version="1.0" standalone="no"?><!DOCTYPE svg PUBLIC "-//W3C//DTD SVG 1.1//EN" "http://www.w3.org/Graphics/SVG/1.1/DTD/svg11.dtd"><svg t="1496131966236" class="icon" style="" viewBox="0 0 1024 1024" version="1.1" xmlns="http://www.w3.org/2000/svg" p-id="9981" xmlns:xlink="http://www.w3.org/1999/xlink" width="200" height="200"><defs><style type="text/css"></style></defs><path d="M1017.216 507.2l-110.496-110.496c18.912-22.4 35.456-46.368 48.992-71.808l-34.016-34.016-0.32 0c-65.632 136.416-224.224 232.736-409.728 232.736S167.52 427.328 101.92 290.912L101.728 290.912l-34.112 34.112c13.6 25.536 30.24 49.6 49.28 72.096l-110.112 110.08c-9.056 9.056-9.056 23.872 0 32.896s23.872 9.056 32.896 0l109.184-109.184c41.056 39.232 90.528 71.744 146.08 95.456l-60 126.912c-5.472 11.584-0.48 25.504 11.104 30.976 11.584 5.472 25.504 0.48 30.976-11.104l61.568-130.24c46.912 15.296 97.344 24.352 149.952 26.464 0 0.256-0.16 0.48-0.16 0.736l0 139.648c0 12.8 10.464 23.264 23.264 23.264s23.264-10.464 23.264-23.264l0-139.648c0-0.256-0.128-0.48-0.16-0.736 52.736-2.112 103.328-11.2 150.336-26.592l61.632 130.368c5.472 11.584 19.424 16.576 30.976 11.104 11.584-5.472 16.576-19.424 11.104-30.976l-60.064-127.104c55.552-23.776 105.024-56.352 146.048-95.648l109.504 109.504c9.056 9.056 23.872 9.056 32.896 0S1026.272 516.256 1017.216 507.2z" p-id="9982" fill="#333333"></path></svg>