<?xml version="1.0" encoding="utf-8"?>
<!-- Generator: Adobe Illustrator 16.0.0, SVG Export Plug-In . SVG Version: 6.00 Build 0)  -->
<!DOCTYPE svg PUBLIC "-//W3C//DTD SVG 1.1//EN" "http://www.w3.org/Graphics/SVG/1.1/DTD/svg11.dtd">
<svg version="1.1" id="图层_1" xmlns="http://www.w3.org/2000/svg" xmlns:xlink="http://www.w3.org/1999/xlink" x="0px" y="0px"
	 width="200px" height="200px" viewBox="0 0 200 200" enable-background="new 0 0 200 200" xml:space="preserve">
<path fill="#0CA294" fill-opacity="0.7" d="M25.8,78.469h33.993c3.755,0,6.8,2.753,6.8,6.15v30.762c0,3.396-3.045,6.146-6.8,6.146
	l0,0H25.8c-3.754,0-6.8-2.75-6.8-6.146l0,0V84.62C19,81.223,22.045,78.469,25.8,78.469z"/>
<rect x="27.498" y="86.158" fill="#E0DFD0" fill-opacity="0.7" width="30.595" height="27.685"/>
<path fill="#D73949" fill-opacity="0.7" d="M49.089,29.701l16.759,30.327c1.738,3.145,0.329,6.971-3.148,8.541
	c-0.978,0.441-2.053,0.674-3.146,0.674H26.037c-3.885,0-7.037-2.85-7.037-6.367c0-0.989,0.254-1.962,0.742-2.848l16.759-30.327
	c1.738-3.145,5.965-4.419,9.442-2.847C47.303,27.471,48.408,28.468,49.089,29.701z"/>
<polygon fill="#E0DFD0" fill-opacity="0.7" points="42.795,36.105 28.882,61.283 56.708,61.283 42.795,36.107 "/>
<path fill="#001417" fill-opacity="0.7" d="M85.289,39.545h91.783c2.818,0,5.1,3.657,5.1,8.166c0,4.51-2.281,8.167-5.1,8.167H85.289
	c-2.816,0-5.1-3.657-5.1-8.167C80.189,43.202,82.473,39.545,85.289,39.545z"/>
<path fill="#35A0D6" fill-opacity="0.7" d="M42.795,173.819c-13.141,0-23.795-9.643-23.795-21.527
	c0-11.895,10.654-21.535,23.795-21.535c13.144,0,23.798,9.641,23.798,21.535C66.593,164.177,55.938,173.819,42.795,173.819z"/>
<ellipse fill="#E0DFD0" fill-opacity="0.7" cx="42.795" cy="152.292" rx="15.298" ry="13.842"/>
<path fill="#001417" fill-opacity="0.7" d="M85.306,91.74l91.783,0.186c2.818,0.005,5.092,3.667,5.083,8.176
	c-0.009,4.51-2.298,8.162-5.116,8.156l-91.783-0.186c-2.816-0.006-5.092-3.666-5.083-8.176
	C80.199,95.387,82.489,91.735,85.306,91.74z"/>
<path fill="#001417" fill-opacity="0.7" d="M85.306,144.029l91.783,0.186c2.818,0.006,5.092,3.667,5.083,8.176
	c-0.009,4.51-2.298,8.162-5.116,8.156l-91.783-0.186c-2.816-0.006-5.092-3.666-5.083-8.176
	C80.199,147.676,82.489,144.023,85.306,144.029z"/>
</svg>
