<?xml version="1.0" encoding="utf-8"?>
<!-- Generator: Adobe Illustrator 16.0.0, SVG Export Plug-In . SVG Version: 6.00 Build 0)  -->
<!DOCTYPE svg PUBLIC "-//W3C//DTD SVG 1.1//EN" "http://www.w3.org/Graphics/SVG/1.1/DTD/svg11.dtd">
<svg version="1.1" id="图层_1" xmlns="http://www.w3.org/2000/svg" xmlns:xlink="http://www.w3.org/1999/xlink" x="0px" y="0px"
	 width="32px" height="32px" viewBox="0 0 32 32" enable-background="new 0 0 32 32" xml:space="preserve">
<path d="M14.666,2.821c0.189-1.761,2.6-1.604,2.693,0l0.002,19.13l8.294-8.171c1.301-1.143,2.847,0.685,1.88,1.886
	c-3.672,3.635-10.265,10.141-10.416,10.291c-0.607,0.674-1.566,0.709-2.214,0c-1.21-1.193-10.188-10.032-10.462-10.35
	c-0.91-1.156,0.563-2.865,1.82-1.902c0.324,0.281,8.4,8.246,8.4,8.246L14.666,2.821z M27.562,32H4.578v-2.66h22.982L27.562,32
	L27.562,32z"/>
</svg>
