<?xml version="1.0" standalone="no"?><!DOCTYPE svg PUBLIC "-//W3C//DTD SVG 1.1//EN" "http://www.w3.org/Graphics/SVG/1.1/DTD/svg11.dtd"><svg t="1598456507554" class="icon" viewBox="0 0 1024 1024" version="1.1" xmlns="http://www.w3.org/2000/svg" p-id="14653" xmlns:xlink="http://www.w3.org/1999/xlink" width="32" height="32"><defs><style type="text/css"></style></defs><path d="M596.608 940.64a96 96 0 0 1-169.216 0C270.464 647.84 192 451.104 192 350.56 192 174.592 335.264 32 512 32s320 142.624 320 318.528c0 100.576-78.464 297.28-235.392 590.112zM512 486.112c70.72 0 128-58.08 128-129.76 0-71.648-57.28-129.728-128-129.728s-128 58.08-128 129.728c0 71.68 57.28 129.76 128 129.76z" fill="#D73949" p-id="14654"></path><path d="M596.608 940.64C753.536 647.84 832 451.104 832 350.56 832 174.592 688.736 32 512 32S192 174.624 192 350.528c0 100.576 78.464 297.28 235.392 590.112a96 96 0 0 0 169.216 0z m28.224 15.104a128 128 0 0 1-225.664 0C239.68 658.112 160 458.368 160 350.528 160 156.928 317.632 0 512 0s352 156.896 352 350.528c0 107.84-79.68 307.584-239.168 605.216zM512 486.112c70.72 0 128-58.08 128-129.76 0-71.648-57.28-129.728-128-129.728s-128 58.08-128 129.728c0 71.68 57.28 129.76 128 129.76z m0 32c-88.448 0-160-72.512-160-161.76 0-89.216 71.552-161.728 160-161.728s160 72.512 160 161.728c0 89.248-71.552 161.76-160 161.76z" fill="#D73949" p-id="14655"></path></svg>