<?xml version="1.0" encoding="utf-8"?>
<!-- Generator: Adobe Illustrator 16.0.0, SVG Export Plug-In . SVG Version: 6.00 Build 0)  -->
<!DOCTYPE svg PUBLIC "-//W3C//DTD SVG 1.1//EN" "http://www.w3.org/Graphics/SVG/1.1/DTD/svg11.dtd">
<svg version="1.1" id="图层_1" xmlns="http://www.w3.org/2000/svg" xmlns:xlink="http://www.w3.org/1999/xlink" x="0px" y="0px"
	 width="32px" height="32px" viewBox="0 0 32 32" enable-background="new 0 0 32 32" xml:space="preserve">
<g>
	<path d="M9.207,12.007c0.477-0.155,0.929-0.296,1.357-0.424c0.428-0.127,0.819-0.237,1.171-0.328s0.658-0.16,0.917-0.207
		c0.259-0.047,0.461-0.07,0.606-0.07c0.214,0,0.416,0.03,0.606,0.091s0.373,0.178,0.549,0.353s0.349,0.417,0.518,0.726
		c0.169,0.31,0.34,0.709,0.513,1.201c0.208,0.592,0.414,1.151,0.622,1.679c0.207,0.528,0.407,1.054,0.601,1.579
		c0.441-0.854,0.882-1.632,1.321-2.335c0.438-0.703,0.88-1.301,1.326-1.795c0.445-0.495,0.897-0.878,1.356-1.15
		c0.46-0.272,0.931-0.408,1.414-0.408c0.312,0,0.584,0.045,0.819,0.136c0.234,0.091,0.433,0.21,0.596,0.358
		c0.162,0.148,0.283,0.321,0.362,0.52s0.119,0.402,0.119,0.61c0,0.282-0.072,0.563-0.218,0.842
		c-0.145,0.279-0.366,0.516-0.663,0.711h-0.083c-0.124-0.147-0.254-0.267-0.389-0.358c-0.134-0.091-0.271-0.162-0.409-0.212
		c-0.138-0.05-0.274-0.084-0.409-0.101c-0.135-0.017-0.264-0.025-0.388-0.025c-0.408,0-0.8,0.113-1.177,0.338
		c-0.376,0.226-0.74,0.538-1.093,0.938c-0.353,0.4-0.696,0.873-1.03,1.417c-0.336,0.545-0.669,1.141-1,1.786
		c0.324,0.867,0.623,1.631,0.896,2.29c0.273,0.659,0.53,1.229,0.772,1.71c0.241,0.48,0.477,0.882,0.704,1.205
		c0.229,0.322,0.459,0.582,0.694,0.776c0.234,0.195,0.48,0.333,0.735,0.414c0.256,0.08,0.535,0.121,0.84,0.121
		c0.207,0,0.398-0.007,0.574-0.021c0.177-0.014,0.349-0.035,0.519-0.065c0.169-0.03,0.347-0.072,0.533-0.126
		s0.394-0.121,0.622-0.202l0.207,0.575c-0.332,0.222-0.688,0.426-1.067,0.61s-0.763,0.343-1.149,0.474
		c-0.388,0.132-0.766,0.232-1.135,0.303c-0.37,0.071-0.713,0.106-1.031,0.106c-0.449,0-0.851-0.106-1.207-0.318
		c-0.355-0.211-0.693-0.548-1.015-1.009c-0.321-0.46-0.645-1.049-0.969-1.765c-0.325-0.717-0.684-1.579-1.078-2.588
		c-0.491,0.848-0.976,1.624-1.456,2.33c-0.48,0.706-0.962,1.313-1.445,1.821c-0.484,0.508-0.969,0.902-1.456,1.186
		c-0.487,0.282-0.979,0.423-1.477,0.423c-0.304,0-0.57-0.04-0.798-0.121c-0.228-0.08-0.418-0.188-0.57-0.322S8.1,25.395,8.02,25.217
		c-0.079-0.179-0.119-0.365-0.119-0.561c0-0.229,0.052-0.46,0.156-0.695c0.104-0.235,0.259-0.461,0.466-0.677
		c0.373,0.135,0.707,0.229,1,0.283s0.561,0.08,0.803,0.08c0.442,0,0.867-0.107,1.274-0.322s0.805-0.52,1.191-0.913
		s0.77-0.869,1.15-1.428c0.379-0.558,0.763-1.18,1.15-1.866c-0.125-0.322-0.25-0.655-0.378-0.998s-0.264-0.705-0.409-1.085
		s-0.297-0.783-0.456-1.21c-0.159-0.427-0.328-0.883-0.508-1.367c-0.159-0.41-0.316-0.745-0.472-1.003
		c-0.155-0.259-0.321-0.462-0.497-0.61s-0.366-0.249-0.57-0.303s-0.43-0.081-0.679-0.081c-0.221,0-0.481,0.025-0.782,0.076
		c-0.3,0.05-0.626,0.112-0.979,0.187L9.207,12.007z"/>
</g>
<line fill="none" stroke="#000000" stroke-width="2" stroke-miterlimit="10" x1="7.438" y1="6.465" x2="24.563" y2="6.465"/>
</svg>
