<?xml version="1.0" encoding="utf-8"?>
<!-- Generator: Adobe Illustrator 16.0.0, SVG Export Plug-In . SVG Version: 6.00 Build 0)  -->
<!DOCTYPE svg PUBLIC "-//W3C//DTD SVG 1.1//EN" "http://www.w3.org/Graphics/SVG/1.1/DTD/svg11.dtd">
<svg version="1.1" id="图层_1" xmlns="http://www.w3.org/2000/svg" xmlns:xlink="http://www.w3.org/1999/xlink" x="0px" y="0px"
	 width="200px" height="200px" viewBox="0 0 200 200" enable-background="new 0 0 200 200" xml:space="preserve">
<path fill="#D73949" d="M48.074,126.544l-14.596-0.233v36.76h14.596V126.544z"/>
<path fill="#0CA294" d="M61.536,108.145l-14.596-0.351v55.276h14.596V108.145z"/>
<path fill="#35A0D6" d="M75.998,115.841l-14.596-0.302v47.531h14.596V115.841z"/>
<path fill="#819292" d="M19.949,172.923V19.17h-7.242v162.137H187.68v-8.385H19.949z"/>
<path fill="#D73949" d="M103.238,98.414L88.643,98v65.07h14.596V98.414z"/>
<path fill="#0CA294" d="M116.7,42.301l-14.596-0.771V163.07H116.7V42.301z"/>
<path fill="#35A0D6" d="M131.162,71.966l-14.596-0.582v91.686h14.596V71.966z"/>
<path fill="#D73949" d="M159.256,98.414L144.66,98v65.07h14.596V98.414z"/>
<path fill="#0CA294" d="M172.718,147.357l-14.596-0.1v15.813h14.596V147.357z"/>
<path fill="#35A0D6" d="M187.18,107.846l-14.596-0.353v55.577h14.596V107.846z"/>
</svg>
