<svg width="1024" height="1024" xmlns="http://www.w3.org/2000/svg" class="icon">
 <defs>
  <style type="text/css"/>
 </defs>
 <g>
  <title>background</title>
  <rect fill="none" id="canvas_background" height="1026" width="1026" y="-1" x="-1"/>
 </g>
 <g>
  <title>Layer 1</title>
  <path id="svg_2" d="m922.285714,430.971428l-140.8,0c-12.8,0 -25.6,6.4 -32,19.2l-128,217.6l-121.6,-396.8c-6.4,-19.2 -25.6,-32 -51.2,-25.6c-6.4,6.4 -19.2,12.8 -25.6,19.2l-128,256l-128,0c-19.2,0 -38.4,12.8 -38.4,38.4s19.2,38.4 38.4,38.4l153.6,0c12.8,0 25.6,-6.4 38.4,-19.2l96,-185.6l108.8,384c6.4,19.2 25.6,32 51.2,25.6c12.8,0 19.2,-6.4 25.6,-19.2l166.4,-281.6l115.2,0c19.2,0 38.4,-19.2 38.4,-38.4s-19.2,-32 -38.4,-32z"/>
  <ellipse ry="61.428572" rx="64.285715" id="svg_3" cy="260.437495" cx="460.571472" stroke-width="null" fill="#000000"/>
  <ellipse ry="61.428572" rx="64.285715" id="svg_5" cy="780.437495" cx="603.428619" stroke-width="null" fill="#000000"/>
 </g>
</svg>