<?xml version="1.0" standalone="no"?><!DOCTYPE svg PUBLIC "-//W3C//DTD SVG 1.1//EN" "http://www.w3.org/Graphics/SVG/1.1/DTD/svg11.dtd"><svg t="1496069207335" class="icon" style="" viewBox="0 0 1024 1024" version="1.1" xmlns="http://www.w3.org/2000/svg" p-id="2583" xmlns:xlink="http://www.w3.org/1999/xlink" width="200" height="200"><defs><style type="text/css"></style></defs><path d="M888.988 492.01l-128-160c-6.192-7.739-15.458-12.012-24.994-12.012-3.54 0-7.115 0.588-10.586 1.806C712.584 326.302 704 338.41 704 352l0 96L448 448c-35.346 0-64 28.654-64 64 0 35.347 28.654 64 64 64l256 0 0 96c0 13.59 8.584 25.697 21.408 30.196 3.47 1.217 7.047 1.806 10.586 1.806 9.537 0 18.802-4.271 24.994-12.012l128-160C898.338 520.304 898.338 503.697 888.988 492.01z" p-id="2584" fill="#d81e06"></path><path d="M576 768 384 768l-64 0 0-0.01c-0.168 0.001-0.333 0.01-0.5 0.01-35.071 0-63.5-28.654-63.5-64l0-64L256 384l0-64 0.01 0c-0.001-0.167-0.01-0.333-0.01-0.5 0-35.07 28.653-63.5 64-63.5l64 0 192 0c35.346 0 64-28.653 64-64 0-35.346-28.654-64-64-64L256 128c-70.692 0-128 57.308-128 128l0 512c0 70.691 57.308 128 128 128l320 0c35.346 0 64-28.654 64-64C640 796.653 611.346 768 576 768z" p-id="2585" fill="#d81e06"></path></svg>