<?xml version="1.0" standalone="no"?><!DOCTYPE svg PUBLIC "-//W3C//DTD SVG 1.1//EN" "http://www.w3.org/Graphics/SVG/1.1/DTD/svg11.dtd"><svg t="1606316415779" class="icon" viewBox="0 0 1024 1024" version="1.1" xmlns="http://www.w3.org/2000/svg" p-id="1245" width="32" height="32" xmlns:xlink="http://www.w3.org/1999/xlink"><defs><style type="text/css"></style></defs><path d="M855.93673837 414.24955857c-3.62038672 3.62038672-14.48154688 7.24077344-18.1019336 10.86116016l-173.77856254 0c-14.48154688 0-25.34270704-10.86116016-25.34270704-25.34270704 0-14.48154688 10.86116016-25.34270704 25.34270704-25.34270704l152.05624222 0 0-152.05624222c0-14.48154688 10.86116016-25.34270704 25.34270704-25.34270704s25.34270704 10.86116016 25.34270704 25.34270704l0 173.77856254c-7.24077344 7.24077344-7.24077344 14.48154688-10.86116016 18.1019336z m-445.30756652 264.28823054c-3.62038672 3.62038672-14.48154688 7.24077344-18.1019336 10.86116015l-148.43585551-3.62038672 0 152.05624223c0 14.48154688-10.86116016 25.34270704-25.34270703 25.34270704-14.48154688 0-25.34270704-10.86116016-25.34270704-25.34270704l-3.62038672-177.39894926c0-14.48154688 10.86116016-25.34270704 25.34270704-25.34270704l177.39894926 3.62038672c14.48154688 0 25.34270704 10.86116016 25.34270704 25.34270704 3.62038672 3.62038672 0 7.24077344-7.24077344 14.48154688z" fill="#707070" p-id="1246"></path><path d="M747.32513678 783.52900398c-61.54657423 61.54657423-148.43585551 97.75044143-235.32513678 97.75044143-130.33392191 0-249.80668366-76.02812111-304.11248445-195.50088287-7.24077344-7.24077344-3.62038672-25.34270704 10.86116016-32.58348047 10.86116016-3.62038672 28.96309376 0 36.20386719 14.48154688 47.06502736 97.75044143 148.43585551 162.91740239 257.0474571 162.91740238 126.71353519 3.62038672 238.9455235-79.64850783 275.1493907-202.7416563 3.62038672-10.86116016 18.1019336-18.1019336 32.58348047-18.1019336 10.86116016 3.62038672 18.1019336 18.1019336 18.1019336 32.58348048-21.72232032 57.92618751-50.68541408 101.37082815-90.50966799 141.19508207z m97.75044143-387.38137901L837.83480477 403.38839841c-14.48154688 7.24077344-28.96309376 0-32.58348048-10.86116016-47.06502736-97.75044143-148.43585551-162.91740239-257.04745709-162.91740238-123.09314847 0-238.9455235 79.64850783-275.1493907 202.7416563-3.62038672 10.86116016-18.1019336 18.1019336-32.58348048 18.1019336-14.48154688-14.48154688-21.72232032-28.96309376-18.10193359-39.82425392 39.82425392-141.19508207 173.77856254-238.9455235 325.83480477-238.9455235 130.33392191 0 246.18629694 79.64850783 304.11248445 195.50088286 0 7.24077344 0 21.72232032-7.24077344 28.96309376z" fill="#707070" p-id="1247"></path></svg>