<?xml version="1.0" standalone="no"?><!DOCTYPE svg PUBLIC "-//W3C//DTD SVG 1.1//EN" "http://www.w3.org/Graphics/SVG/1.1/DTD/svg11.dtd"><svg t="1495960065166" class="icon" style="" viewBox="0 0 1024 1024" version="1.1" xmlns="http://www.w3.org/2000/svg" p-id="1895" xmlns:xlink="http://www.w3.org/1999/xlink" width="200" height="200"><defs><style type="text/css"></style></defs><path d="M102.144 829.347V138.898H65.196V867h892.761v-37.653z" fill="#819292" p-id="1896"></path><path d="M145.123 612.601a81.241 82.791 0 1 0 162.482 0 81.241 82.791 0 1 0-162.482 0Z" fill="#D73949" p-id="1897"></path><path d="M496.785 388.052a56.717 57.799 0 1 0 113.434 0 56.717 57.799 0 1 0-113.434 0Z" fill="#D97B24" p-id="1898"></path><path d="M737.424 659.407a64.265 65.49 0 1 0 128.53 0 64.265 65.49 0 1 0-128.53 0Z" fill="#159A8D" p-id="1899"></path><path d="M124.725 760.992a33.781 34.425 0 1 0 67.562 0 33.781 34.425 0 1 0-67.562 0Z" fill="#D97B24" p-id="1900"></path><path d="M879.08 492.517a16.933 17.256 0 1 0 33.866 0 16.933 17.256 0 1 0-33.866 0Z" fill="#D97B24" p-id="1901"></path><path d="M762.198 467.09a19.421 19.792 0 1 0 38.842 0 19.421 19.792 0 1 0-38.842 0Z" fill="#D73949" p-id="1902"></path><path d="M337.483 314.74a25.036 25.513 0 1 0 50.072 0 25.036 25.513 0 1 0-50.072 0Z" fill="#D73949" p-id="1903"></path><path d="M611.021 540.75a23.252 23.696 0 1 0 46.504 0 23.252 23.696 0 1 0-46.504 0Z" fill="#D73949" p-id="1904"></path><path d="M396.03 539.646a22.456 22.885 0 1 0 44.912 0 22.456 22.885 0 1 0-44.912 0Z" fill="#159A8D" p-id="1905"></path><path d="M314.482 427.419a18.014 18.358 0 1 0 36.028 0 18.014 18.358 0 1 0-36.028 0Z" fill="#159A8D" p-id="1906"></path><path d="M503.88 643.797a16.933 17.256 0 1 0 33.866 0 16.933 17.256 0 1 0-33.866 0Z" fill="#D73949" p-id="1907"></path></svg>