<?xml version="1.0" encoding="utf-8"?>
<!-- Generator: Adobe Illustrator 16.0.0, SVG Export Plug-In . SVG Version: 6.00 Build 0)  -->
<!DOCTYPE svg PUBLIC "-//W3C//DTD SVG 1.1//EN" "http://www.w3.org/Graphics/SVG/1.1/DTD/svg11.dtd">
<svg version="1.1" id="图层_1" xmlns="http://www.w3.org/2000/svg" xmlns:xlink="http://www.w3.org/1999/xlink" x="0px" y="0px"
	 width="200px" height="200px" viewBox="0 0 200 200" enable-background="new 0 0 200 200" xml:space="preserve">
<path fill="#D73949" d="M57.5,103.288l-29.191-0.188v29.435H57.5V103.288z"/>
<path fill="#0CA294" d="M105.287,108.924l-34.844,27.242l24.815,31.369l34.687-27.44L105.287,108.924z"/>
<path fill="#819292" d="M19.949,172.923V19.17h-7.242v162.137H187.68v-8.385H19.949z"/>
<polygon fill="#35A0D6" points="97.692,91.098 72.287,103.102 49.189,87.101 51.497,59.098 76.902,47.095 100,63.095 "/>
<polygon fill="#D97B24" points="171.244,136.797 147.586,124.617 124.421,137.712 128.369,110.858 109.06,92.273 135.158,87.857 
	146.388,63.277 158.569,87.4 184.821,90.794 166.251,110.118 "/>
</svg>
