<?xml version="1.0" encoding="utf-8"?>
<!-- Generator: Adobe Illustrator 16.0.0, SVG Export Plug-In . SVG Version: 6.00 Build 0)  -->
<!DOCTYPE svg PUBLIC "-//W3C//DTD SVG 1.1//EN" "http://www.w3.org/Graphics/SVG/1.1/DTD/svg11.dtd">
<svg version="1.1" id="图层_1" xmlns="http://www.w3.org/2000/svg" xmlns:xlink="http://www.w3.org/1999/xlink" x="0px" y="0px"
	 width="32px" height="32px" viewBox="0 0 32 32" enable-background="new 0 0 32 32" xml:space="preserve">
<g>
	<path d="M197.173,75.691h0.96c-0.408,0.832-0.722,1.772-0.942,2.82c-0.22,1.049-0.33,2.104-0.33,3.168
		c0,2.088,0.328,3.925,0.984,5.509h-0.912c-0.632-1.553-0.948-3.353-0.948-5.4C195.984,79.572,196.381,77.54,197.173,75.691z"/>
	<path d="M199.381,76.893c0-0.185,0.065-0.344,0.197-0.48c0.133-0.137,0.29-0.204,0.475-0.204c0.191,0,0.354,0.065,0.485,0.198
		c0.133,0.132,0.198,0.294,0.198,0.486c0,0.184-0.065,0.342-0.198,0.474c-0.132,0.132-0.294,0.198-0.485,0.198
		c-0.185,0-0.342-0.068-0.475-0.205C199.446,77.225,199.381,77.068,199.381,76.893z M199.645,78.668h0.828v6.372h-0.828V78.668z"/>
	<path d="M202.165,78.668h0.828v1.141c0.655-0.873,1.452-1.309,2.388-1.309c0.48,0,0.912,0.131,1.296,0.391s0.656,0.6,0.816,1.02
		s0.24,1.038,0.24,1.854v3.276h-0.816v-3.036c0-0.744-0.034-1.248-0.103-1.512c-0.067-0.264-0.172-0.488-0.312-0.672
		s-0.318-0.324-0.534-0.42s-0.468-0.145-0.756-0.145c-0.328,0-0.64,0.076-0.936,0.229c-0.297,0.152-0.549,0.363-0.757,0.636
		s-0.348,0.552-0.42,0.84c-0.071,0.288-0.107,0.868-0.107,1.74v2.34h-0.828V78.668z"/>
	<path d="M215.845,76.208v8.832h-0.805v-1.092c-0.728,0.872-1.58,1.308-2.556,1.308c-0.904,0-1.676-0.332-2.316-0.996
		c-0.64-0.664-0.96-1.464-0.96-2.4c0-0.92,0.324-1.709,0.973-2.369c0.647-0.66,1.424-0.99,2.327-0.99
		c1.04,0,1.885,0.443,2.532,1.332v-3.624H215.845z M215.088,81.896c0-0.729-0.239-1.344-0.72-1.849
		c-0.479-0.504-1.08-0.756-1.8-0.756s-1.322,0.258-1.806,0.774c-0.484,0.516-0.727,1.121-0.727,1.818
		c0,0.703,0.248,1.315,0.744,1.836c0.496,0.52,1.092,0.779,1.788,0.779c0.656,0,1.24-0.246,1.752-0.738
		S215.088,82.648,215.088,81.896z"/>
	<path d="M223.068,82.977l0.695,0.359c-0.688,1.28-1.704,1.92-3.048,1.92c-0.96,0-1.752-0.33-2.376-0.99s-0.936-1.449-0.936-2.369
		c0-0.937,0.313-1.736,0.941-2.4s1.402-0.996,2.322-0.996c0.928,0,1.706,0.309,2.334,0.924c0.628,0.616,0.954,1.457,0.979,2.52
		h-5.736c0.023,0.769,0.266,1.387,0.726,1.854s1.019,0.702,1.674,0.702C221.724,84.5,222.532,83.992,223.068,82.977z
		 M223.068,81.236c-0.112-0.608-0.393-1.084-0.841-1.428c-0.447-0.344-0.964-0.517-1.548-0.517c-1.199,0-1.983,0.647-2.352,1.944
		H223.068z"/>
	<path d="M227.461,82.376l-1.849,2.664h-0.972l2.328-3.36l-2.1-3.012h0.983l1.608,2.305l1.596-2.305h0.984l-2.088,3l2.363,3.372
		h-0.996L227.461,82.376z"/>
	<path d="M232.032,75.691c0.792,1.849,1.188,3.881,1.188,6.097c0,2.048-0.316,3.848-0.948,5.4h-0.912
		c0.656-1.584,0.984-3.421,0.984-5.509c0-1.063-0.11-2.119-0.33-3.168c-0.221-1.048-0.534-1.988-0.942-2.82H232.032z"/>
</g>
<g>
	<path stroke="#000000" stroke-width="0.5" stroke-miterlimit="10" d="M10.902,19.135c-0.012,0.097-0.021,0.189-0.024,0.277
		c-0.004,0.089-0.006,0.177-0.006,0.266c0,0.458,0.061,0.847,0.184,1.167c0.123,0.319,0.297,0.58,0.524,0.78
		c0.227,0.201,0.5,0.347,0.82,0.438c0.319,0.091,0.678,0.136,1.076,0.136s0.776-0.056,1.134-0.166s0.672-0.276,0.944-0.497
		c0.271-0.222,0.487-0.496,0.648-0.823c0.161-0.328,0.241-0.707,0.241-1.137c0-0.273-0.038-0.524-0.112-0.751
		s-0.177-0.436-0.308-0.627c-0.13-0.191-0.285-0.367-0.464-0.527c-0.179-0.161-0.374-0.313-0.585-0.455
		c-0.211-0.144-0.433-0.28-0.666-0.41c-0.233-0.131-0.471-0.263-0.712-0.396c-0.253-0.137-0.505-0.277-0.757-0.422
		c-0.251-0.145-0.491-0.299-0.72-0.464c-0.229-0.165-0.442-0.342-0.64-0.534c-0.197-0.191-0.367-0.403-0.509-0.636
		c-0.143-0.233-0.255-0.49-0.338-0.771c-0.083-0.282-0.124-0.593-0.124-0.935c0-0.426,0.054-0.823,0.163-1.191
		c0.109-0.368,0.26-0.706,0.456-1.013c0.195-0.307,0.428-0.582,0.7-0.823c0.271-0.241,0.568-0.445,0.892-0.612
		c0.324-0.167,0.669-0.293,1.038-0.38c0.368-0.086,0.745-0.129,1.13-0.129c0.177,0,0.366,0.011,0.567,0.033
		c0.201,0.022,0.402,0.056,0.603,0.1c0.201,0.044,0.393,0.098,0.576,0.16c0.183,0.063,0.345,0.134,0.485,0.214
		s0.254,0.169,0.338,0.265c0.084,0.097,0.127,0.199,0.127,0.308c0,0.117-0.002,0.262-0.006,0.438
		c-0.004,0.175-0.01,0.374-0.016,0.597s-0.016,0.466-0.027,0.73c-0.012,0.263-0.025,0.542-0.043,0.835l-0.608-0.03
		c0.013-0.145,0.019-0.283,0.019-0.416c0-0.398-0.06-0.749-0.178-1.052c-0.119-0.303-0.286-0.557-0.501-0.76
		c-0.215-0.203-0.475-0.356-0.778-0.458c-0.304-0.103-0.641-0.154-1.01-0.154c-0.37,0-0.715,0.062-1.034,0.184
		c-0.32,0.123-0.596,0.293-0.829,0.513c-0.233,0.219-0.416,0.479-0.549,0.781c-0.133,0.302-0.199,0.633-0.199,0.995
		c0,0.293,0.038,0.56,0.115,0.799c0.076,0.239,0.182,0.459,0.316,0.661s0.294,0.384,0.479,0.549c0.185,0.165,0.386,0.32,0.603,0.467
		c0.217,0.146,0.446,0.286,0.688,0.419s0.484,0.265,0.73,0.398c0.253,0.133,0.505,0.27,0.756,0.41
		c0.251,0.141,0.492,0.291,0.721,0.449c0.229,0.159,0.441,0.332,0.637,0.519c0.194,0.187,0.363,0.394,0.506,0.621
		s0.256,0.478,0.338,0.751s0.123,0.576,0.123,0.91c0,0.551-0.074,1.04-0.225,1.466c-0.152,0.426-0.354,0.797-0.607,1.112
		c-0.253,0.315-0.543,0.582-0.871,0.799c-0.328,0.218-0.668,0.393-1.022,0.525c-0.354,0.132-0.708,0.228-1.061,0.286
		c-0.354,0.059-0.682,0.087-0.983,0.087c-0.398,0-0.771-0.026-1.122-0.081c-0.35-0.054-0.656-0.126-0.919-0.214
		c-0.263-0.089-0.47-0.19-0.621-0.305s-0.226-0.232-0.226-0.353c0-0.27,0.009-0.655,0.027-1.158c0.018-0.502,0.047-1.1,0.087-1.791
		L10.902,19.135z"/>
</g>
<g>
	<path d="M20.552,23.727c0.261-0.087,0.499-0.186,0.714-0.296c0.215-0.111,0.4-0.229,0.556-0.355s0.275-0.259,0.359-0.397
		c0.085-0.139,0.127-0.281,0.127-0.427c0-0.061-0.011-0.117-0.034-0.168c-0.022-0.051-0.053-0.095-0.091-0.13
		c-0.038-0.036-0.083-0.063-0.134-0.083s-0.105-0.029-0.164-0.029c-0.137,0-0.279,0.042-0.426,0.127
		c-0.146,0.084-0.292,0.207-0.437,0.368c-0.145,0.16-0.285,0.357-0.422,0.59s-0.264,0.496-0.381,0.791
		c-0.117,0.296-0.223,0.62-0.316,0.975s-0.168,0.732-0.225,1.134l-0.658,0.085l-0.052-0.004c0.013-0.256,0.027-0.539,0.044-0.849
		c0.016-0.31,0.033-0.638,0.052-0.985s0.038-0.71,0.059-1.087s0.041-0.761,0.062-1.151c0.021-0.391,0.042-0.785,0.064-1.183
		c0.021-0.397,0.042-0.79,0.063-1.178c0.021-0.388,0.04-0.768,0.06-1.139c0.02-0.372,0.038-0.727,0.056-1.065
		c0.002-0.053,0.018-0.098,0.046-0.136s0.064-0.068,0.109-0.091c0.044-0.023,0.095-0.04,0.151-0.051
		c0.056-0.011,0.115-0.017,0.176-0.017c0.13,0,0.267,0.035,0.41,0.104c-0.05,0.445-0.095,0.854-0.134,1.226
		c-0.039,0.371-0.074,0.716-0.105,1.034s-0.061,0.616-0.086,0.893c-0.026,0.277-0.05,0.542-0.07,0.795s-0.04,0.501-0.059,0.743
		s-0.037,0.488-0.054,0.738c-0.018,0.249-0.035,0.508-0.054,0.775c-0.019,0.267-0.039,0.554-0.061,0.859l0.02,0.004
		c0.078-0.259,0.171-0.514,0.277-0.766s0.224-0.492,0.352-0.719s0.266-0.437,0.414-0.629c0.147-0.192,0.302-0.357,0.462-0.497
		c0.161-0.139,0.327-0.248,0.499-0.327s0.345-0.119,0.521-0.119c0.11,0,0.213,0.019,0.306,0.054
		c0.094,0.036,0.175,0.087,0.243,0.153s0.121,0.146,0.159,0.239c0.038,0.094,0.058,0.198,0.058,0.313
		c0,0.18-0.039,0.354-0.117,0.524c-0.078,0.169-0.189,0.332-0.333,0.488s-0.315,0.305-0.517,0.445c-0.2,0.14-0.424,0.27-0.669,0.389
		c0.146,0.268,0.276,0.496,0.393,0.687c0.116,0.189,0.222,0.35,0.316,0.479c0.094,0.129,0.18,0.232,0.255,0.308
		c0.076,0.076,0.146,0.134,0.211,0.173c0.063,0.039,0.124,0.064,0.181,0.077c0.057,0.012,0.112,0.018,0.169,0.018
		c0.113,0,0.23-0.018,0.353-0.052c0.121-0.035,0.244-0.081,0.368-0.138l0.062,0.17c-0.078,0.063-0.177,0.127-0.297,0.192
		c-0.119,0.065-0.246,0.125-0.379,0.179c-0.134,0.055-0.267,0.099-0.397,0.132c-0.132,0.034-0.247,0.051-0.348,0.051
		c-0.117,0-0.233-0.043-0.35-0.129c-0.116-0.085-0.241-0.219-0.375-0.398c-0.134-0.181-0.281-0.409-0.441-0.687
		c-0.161-0.276-0.346-0.607-0.554-0.992L20.552,23.727z"/>
</g>
</svg>
