<?xml version="1.0" encoding="utf-8"?>
<!-- Generator: Adobe Illustrator 16.0.0, SVG Export Plug-In . SVG Version: 6.00 Build 0)  -->
<!DOCTYPE svg PUBLIC "-//W3C//DTD SVG 1.1//EN" "http://www.w3.org/Graphics/SVG/1.1/DTD/svg11.dtd">
<svg version="1.1" id="图层_1" xmlns="http://www.w3.org/2000/svg" xmlns:xlink="http://www.w3.org/1999/xlink" x="0px" y="0px"
	 width="200px" height="200px" viewBox="0 0 200 200" enable-background="new 0 0 200 200" xml:space="preserve">
<path fill="#819292" d="M19.949,172.923V19.17h-7.242v162.137H187.68v-8.385H19.949z"/>
<path fill="#EF633F" fill-opacity="0.1" d="M20.073,143.25V19.987h130.18c14.384,22.057,28.078,47.446,37.427,71.678v82.519H82.619
	C76.13,169,67.506,162.199,45.368,153.607C36.851,150.342,28.414,146.89,20.073,143.25z"/>
<path fill="#EF633F" fill-opacity="0.1" d="M20.073,124.159V19.987h107.852c38.41,50.872,83.354,147.991,17.27,147.991
	c-70.65,0-39.223-7.899-86.199-26.168C45.15,136.425,31.667,130.79,20.073,124.159z"/>
<path fill="#EF633F" fill-opacity="0.2" d="M20.073,104.89V39.165c5.237-7.291,11.707-13.763,19.164-19.178h68.229
	c1.513,1.428,2.973,2.986,4.404,4.678c30.956,36.815,75.036,124.041,19.662,124.041c-55.364,0-30.734-6.22-67.553-20.569
	C47.169,121.58,31.016,114.547,20.073,104.89z"/>
<path fill="#EF633F" fill-opacity="0.6" d="M71.697,113.574c-26.895-10.61-54.096-20.89-41.441-51.505
	C42.91,31.45,76.181,12.232,98.8,39.453c22.618,27.211,65.633,96.23,25.189,96.23c-40.449,0-25.391-11.5-52.292-22.097V113.574z"/>
<path fill="#EF633F" d="M76.188,102.092C59.21,95.229,42.036,88.578,50.026,68.756c7.99-19.815,28.981-32.252,43.263-14.634
	c14.271,17.604,41.428,62.281,15.895,62.281C83.659,116.403,93.163,108.97,76.188,102.092z"/>
</svg>
