<?xml version="1.0" standalone="no"?><!DOCTYPE svg PUBLIC "-//W3C//DTD SVG 1.1//EN" "http://www.w3.org/Graphics/SVG/1.1/DTD/svg11.dtd"><svg t="1598104624636" class="icon" viewBox="0 0 1024 1024" version="1.1" xmlns="http://www.w3.org/2000/svg" p-id="9514" xmlns:xlink="http://www.w3.org/1999/xlink" width="32" height="32"><defs><style type="text/css"></style></defs><path d="M767.92046 896H276.72046a84.628 84.628 0 0 1-77.84-51.24C185.48046 813.6 192.00046 777.6 215.40046 753.04L445.26046 512 215.40046 270.96C192.00046 246.4 185.48046 210.4 198.88046 179.24A84.65 84.65 0 0 1 276.72046 128h491.2C803.30046 128 832.00046 156.66 832.00046 192v96c0 17.68-14.34 32-32.04 32h-32.04c-17.7 0-32.04-14.32-32.04-32v-64H303.32046l232.54 243.88c23.58 24.72 23.58 63.56 0 88.28L303.32046 800h432.56v-64c0-17.68 14.34-32 32.04-32h32.04c17.7 0 32.04 14.32 32.04 32v96c0 35.34-28.7 64-64.08 64z" p-id="9515"></path></svg>