<?xml version="1.0" standalone="no"?><!DOCTYPE svg PUBLIC "-//W3C//DTD SVG 1.1//EN" "http://www.w3.org/Graphics/SVG/1.1/DTD/svg11.dtd"><svg t="1598535441537" class="icon" viewBox="0 0 1024 1024" version="1.1" xmlns="http://www.w3.org/2000/svg" p-id="22469" xmlns:xlink="http://www.w3.org/1999/xlink" width="32" height="32"><defs><style type="text/css"></style></defs><path d="M0 0v1024h1024V0H0z m942.08 942.08H81.92V81.92h860.16v860.16z" fill="#567DBB" p-id="22470"></path><path d="M281.6 611.84c-10.24 2.56-20.48 5.12-35.84 5.12-23.04 0-40.96-5.12-51.2-17.92-5.12-7.68-10.24-17.92-10.24-30.72H122.88c0 30.72 10.24 53.76 33.28 71.68 23.04 17.92 51.2 25.6 89.6 25.6s66.56-7.68 87.04-25.6 30.72-40.96 30.72-66.56-7.68-46.08-25.6-61.44c-12.8-7.68-28.16-15.36-51.2-20.48l-51.2-12.8c-20.48-5.12-33.28-7.68-38.4-12.8-10.24-5.12-12.8-12.8-12.8-23.04s5.12-20.48 15.36-25.6c10.24-5.12 23.04-10.24 38.4-10.24s25.6 2.56 35.84 7.68c15.36 7.68 23.04 20.48 23.04 38.4h58.88c0-30.72-12.8-56.32-33.28-71.68-23.04-15.36-48.64-25.6-79.36-25.6-38.4 0-66.56 7.68-84.48 25.6-17.92 17.92-30.72 40.96-30.72 66.56 0 28.16 10.24 51.2 30.72 64 12.8 7.68 33.28 15.36 64 23.04l30.72 7.68c17.92 5.12 30.72 7.68 40.96 12.8 7.68 5.12 12.8 12.8 12.8 23.04 0 17.92-7.68 28.16-25.6 33.28zM765.44 665.6c23.04 0 43.52-5.12 58.88-15.36 10.24-5.12 20.48-15.36 30.72-30.72l5.12 35.84h40.96v-158.72h-122.88v53.76h69.12c-2.56 20.48-10.24 35.84-25.6 46.08-15.36 10.24-28.16 17.92-48.64 17.92s-40.96-7.68-56.32-23.04c-15.36-15.36-25.6-40.96-25.6-76.8s7.68-64 23.04-81.92c15.36-17.92 35.84-28.16 58.88-28.16 12.8 0 23.04 2.56 33.28 7.68 17.92 7.68 30.72 23.04 33.28 40.96h61.44c-2.56-28.16-15.36-51.2-38.4-71.68-23.04-17.92-53.76-28.16-89.6-28.16-43.52 0-76.8 15.36-104.96 43.52-28.16 28.16-38.4 66.56-38.4 115.2 0 46.08 12.8 84.48 38.4 112.64 25.6 28.16 56.32 40.96 97.28 40.96zM524.8 660.48l99.84-294.4h-64L496.64 588.8l-64-222.72h-64l97.28 294.4z" fill="#567DBB" p-id="22471"></path></svg>