<?xml version="1.0" standalone="no"?><!DOCTYPE svg PUBLIC "-//W3C//DTD SVG 1.1//EN" "http://www.w3.org/Graphics/SVG/1.1/DTD/svg11.dtd"><svg t="1598535601997" class="icon" viewBox="0 0 1024 1024" version="1.1" xmlns="http://www.w3.org/2000/svg" p-id="29808" xmlns:xlink="http://www.w3.org/1999/xlink" width="32" height="32"><defs><style type="text/css"></style></defs><path d="M338.99 191.923a71.039 71.039 0 0 1 56.464 42.927l183.452 436.255c5.675 13.496-0.665 29.037-14.16 34.712a26.508 26.508 0 0 1-10.276 2.072c-24.098 0-45.766-14.678-54.704-37.058l-61.693-154.48H239.905l-61.693 154.48c-8.938 22.38-30.606 37.058-54.704 37.058-14.64 0-26.508-11.868-26.508-26.508 0-3.53 0.705-7.023 2.073-10.276L282.524 234.85a71.039 71.039 0 0 1 55.712-42.826l0.753-0.1z m0 76.322l-73.587 184.26h147.172l-73.586-184.26z" fill="#EE2233" p-id="29809"></path><path d="M893.747 798.462c18.365 0 33.253 14.292 33.253 31.923 0 16.37-12.837 29.864-29.375 31.708l-3.878 0.215h-731.57c-18.366 0-33.254-14.293-33.254-31.923 0-16.372 12.837-29.865 29.375-31.709l3.878-0.214h731.57z m-3.23-255.385C910.665 543.077 927 557.369 927 575c0 16.371-14.084 29.864-32.229 31.708l-4.255 0.215H708.1c-20.15 0-36.484-14.292-36.484-31.923 0-16.371 14.084-29.864 32.23-31.708l4.254-0.215h182.417z m1.013-191.539c19.59 0 35.47 14.293 35.47 31.924 0 16.37-13.693 29.864-31.334 31.708l-4.136 0.215H643.24c-19.59 0-35.47-14.293-35.47-31.923 0-16.372 13.692-29.865 31.333-31.709l4.136-0.215h248.29zM892.417 160c19.1 0 34.583 14.292 34.583 31.923 0 16.371-13.35 29.864-30.55 31.708l-4.033 0.215H546.583c-19.1 0-34.583-14.292-34.583-31.923 0-16.371 13.35-29.864 30.55-31.708l4.033-0.215h345.834z" fill="#505766" p-id="29810"></path></svg>