<?xml version="1.0" standalone="no"?><!DOCTYPE svg PUBLIC "-//W3C//DTD SVG 1.1//EN" "http://www.w3.org/Graphics/SVG/1.1/DTD/svg11.dtd"><svg t="1598536023252" class="icon" viewBox="0 0 1024 1024" version="1.1" xmlns="http://www.w3.org/2000/svg" p-id="36690" xmlns:xlink="http://www.w3.org/1999/xlink" width="32" height="32"><defs><style type="text/css"></style></defs><path d="M146.285714 0h585.142857l93.622858 102.4 2.925714 2.925714L936.228571 204.8v760.685714c0 32.182857-26.331429 58.514286-58.514285 58.514286H146.285714c-32.182857 0-58.514286-26.331429-58.514285-58.514286V58.514286c0-32.182857 26.331429-58.514286 58.514285-58.514286z" fill="#1D9BBE" p-id="36691"></path><path d="M731.428571 0l102.4 102.4L936.228571 204.8h-146.285714c-32.182857 0-58.514286-26.331429-58.514286-58.514286V0z" fill="#177B96" p-id="36692"></path><path d="M509.074286 669.988571c11.702857 0 20.48 2.925714 26.331428 11.702858 5.851429 5.851429 11.702857 17.554286 11.702857 26.331428 0 11.702857-2.925714 20.48-11.702857 26.331429-8.777143 5.851429-17.554286 11.702857-26.331428 11.702857-11.702857 0-20.48-2.925714-26.331429-11.702857-8.777143-8.777143-11.702857-17.554286-11.702857-26.331429 0-11.702857 2.925714-20.48 11.702857-26.331428 5.851429-8.777143 14.628571-11.702857 26.331429-11.702858z m8.777143-392.045714c40.96 0 76.068571 11.702857 99.474285 35.108572 23.405714 20.48 35.108571 52.662857 35.108572 90.697142 0 29.257143-8.777143 52.662857-23.405715 76.068572-5.851429 5.851429-23.405714 23.405714-52.662857 49.737143-14.628571 11.702857-23.405714 23.405714-29.257143 35.108571-8.777143 14.628571-11.702857 29.257143-11.702857 46.811429v14.628571h-52.662857v-14.628571c0-20.48 2.925714-40.96 11.702857-55.588572 8.777143-17.554286 29.257143-43.885714 64.365715-76.068571 8.777143-8.777143 14.628571-17.554286 20.48-23.405714 11.702857-17.554286 17.554286-32.182857 17.554285-49.737143 0-26.331429-5.851429-46.811429-20.48-58.514286-14.628571-14.628571-35.108571-23.405714-64.365714-23.405714-32.182857 0-55.588571 11.702857-70.217143 32.182857-14.628571 17.554286-20.48 43.885714-20.48 73.142857h-52.662857c0-43.885714 11.702857-81.92 38.034286-108.251429 29.257143-29.257143 64.365714-43.885714 111.177143-43.885714z" fill="#FFFFFF" p-id="36693"></path></svg>