<?xml version="1.0" standalone="no"?><!DOCTYPE svg PUBLIC "-//W3C//DTD SVG 1.1//EN" "http://www.w3.org/Graphics/SVG/1.1/DTD/svg11.dtd"><svg t="1598535963010" class="icon" viewBox="0 0 1024 1024" version="1.1" xmlns="http://www.w3.org/2000/svg" p-id="35842" xmlns:xlink="http://www.w3.org/1999/xlink" width="32" height="32"><defs><style type="text/css"></style></defs><path d="M512 608a288 288 0 1 1 0-576 288 288 0 0 1 0 576z m0-64a224 224 0 1 0 0-448 224 224 0 0 0 0 448z" fill="#086DD9" p-id="35843"></path><path d="M782.208 599.232l-28.416 57.344A472.832 472.832 0 0 0 543.68 608C296 608 96 794.752 96 1024h-64c0-265.6 229.568-480 511.68-480 84.224 0 165.568 19.136 238.528 55.232z" fill="#086DD9" p-id="35844"></path><path d="M911.104 960L832 927.872 752.896 960l4.608-89.024L704 801.792l81.92-22.912L832 704l46.08 74.88 81.92 22.912-53.504 69.12" fill="#76D8F5" p-id="35845"></path><path d="M832 898.88l89.216 36.16a26.88 26.88 0 0 1-20.224 49.92L832 956.928l-108.16 43.904 6.272-121.28-71.872-92.928 110.272-30.848 63.488-103.168 63.488 103.168 110.272 30.848-77.952 100.8a26.88 26.88 0 1 1-42.56-32.896l28.992-37.568-53.568-15.04-28.672-46.528-28.672 46.528-53.568 15.04 35.136 45.44-2.944 56.768 50.048-20.288z" fill="#086DD9" p-id="35846"></path></svg>