<?xml version="1.0" encoding="utf-8"?>
<!-- Generator: Adobe Illustrator 16.0.0, SVG Export Plug-In . SVG Version: 6.00 Build 0)  -->
<!DOCTYPE svg PUBLIC "-//W3C//DTD SVG 1.1//EN" "http://www.w3.org/Graphics/SVG/1.1/DTD/svg11.dtd">
<svg version="1.1" id="图层_1" xmlns="http://www.w3.org/2000/svg" xmlns:xlink="http://www.w3.org/1999/xlink" x="0px" y="0px"
	 width="32px" height="32px" viewBox="0 0 32 32" enable-background="new 0 0 32 32" xml:space="preserve">
<g>
	<path d="M197.173,75.691h0.96c-0.408,0.832-0.722,1.772-0.942,2.82c-0.22,1.049-0.33,2.104-0.33,3.168
		c0,2.088,0.328,3.925,0.984,5.509h-0.912c-0.632-1.553-0.948-3.353-0.948-5.4C195.984,79.572,196.381,77.54,197.173,75.691z"/>
	<path d="M199.381,76.893c0-0.185,0.065-0.344,0.197-0.48c0.133-0.137,0.29-0.204,0.475-0.204c0.191,0,0.354,0.065,0.485,0.198
		c0.133,0.132,0.198,0.294,0.198,0.486c0,0.184-0.065,0.342-0.198,0.474c-0.132,0.132-0.294,0.198-0.485,0.198
		c-0.185,0-0.342-0.068-0.475-0.205C199.446,77.225,199.381,77.068,199.381,76.893z M199.645,78.668h0.828v6.372h-0.828V78.668z"/>
	<path d="M202.165,78.668h0.828v1.141c0.655-0.873,1.452-1.309,2.388-1.309c0.48,0,0.912,0.131,1.296,0.391s0.656,0.6,0.816,1.02
		s0.24,1.038,0.24,1.854v3.276h-0.816v-3.036c0-0.744-0.034-1.248-0.103-1.512c-0.067-0.264-0.172-0.488-0.312-0.672
		s-0.318-0.324-0.534-0.42s-0.468-0.145-0.756-0.145c-0.328,0-0.64,0.076-0.936,0.229c-0.297,0.152-0.549,0.363-0.757,0.636
		s-0.348,0.552-0.42,0.84c-0.071,0.288-0.107,0.868-0.107,1.74v2.34h-0.828V78.668z"/>
	<path d="M215.845,76.208v8.832h-0.805v-1.092c-0.728,0.872-1.58,1.308-2.556,1.308c-0.904,0-1.676-0.332-2.316-0.996
		c-0.64-0.664-0.96-1.464-0.96-2.4c0-0.92,0.324-1.709,0.973-2.369c0.647-0.66,1.424-0.99,2.327-0.99
		c1.04,0,1.885,0.443,2.532,1.332v-3.624H215.845z M215.088,81.896c0-0.729-0.239-1.344-0.72-1.849
		c-0.479-0.504-1.08-0.756-1.8-0.756s-1.322,0.258-1.806,0.774c-0.484,0.516-0.727,1.121-0.727,1.818
		c0,0.703,0.248,1.315,0.744,1.836c0.496,0.52,1.092,0.779,1.788,0.779c0.656,0,1.24-0.246,1.752-0.738
		S215.088,82.648,215.088,81.896z"/>
	<path d="M223.068,82.977l0.695,0.359c-0.688,1.28-1.704,1.92-3.048,1.92c-0.96,0-1.752-0.33-2.376-0.99s-0.936-1.449-0.936-2.369
		c0-0.937,0.313-1.736,0.941-2.4s1.402-0.996,2.322-0.996c0.928,0,1.706,0.309,2.334,0.924c0.628,0.616,0.954,1.457,0.979,2.52
		h-5.736c0.023,0.769,0.266,1.387,0.726,1.854s1.019,0.702,1.674,0.702C221.724,84.5,222.532,83.992,223.068,82.977z
		 M223.068,81.236c-0.112-0.608-0.393-1.084-0.841-1.428c-0.447-0.344-0.964-0.517-1.548-0.517c-1.199,0-1.983,0.647-2.352,1.944
		H223.068z"/>
	<path d="M227.461,82.376l-1.849,2.664h-0.972l2.328-3.36l-2.1-3.012h0.983l1.608,2.305l1.596-2.305h0.984l-2.088,3l2.363,3.372
		h-0.996L227.461,82.376z"/>
	<path d="M232.032,75.691c0.792,1.849,1.188,3.881,1.188,6.097c0,2.048-0.316,3.848-0.948,5.4h-0.912
		c0.656-1.584,0.984-3.421,0.984-5.509c0-1.063-0.11-2.119-0.33-3.168c-0.221-1.048-0.534-1.988-0.942-2.82H232.032z"/>
</g>
<g>
	<path d="M18.58,17.795c0,0.469-0.045,0.933-0.135,1.391c-0.091,0.459-0.221,0.893-0.392,1.303c-0.171,0.409-0.38,0.789-0.626,1.138
		s-0.526,0.648-0.842,0.9c-0.314,0.251-0.661,0.448-1.039,0.593c-0.378,0.144-0.784,0.216-1.218,0.216
		c-0.41,0-0.774-0.067-1.094-0.201c-0.32-0.135-0.602-0.315-0.845-0.542c-0.244-0.227-0.451-0.494-0.622-0.801
		c-0.171-0.308-0.31-0.634-0.417-0.978s-0.186-0.698-0.234-1.064s-0.073-0.722-0.073-1.068c0-0.497,0.043-0.994,0.128-1.489
		c0.085-0.495,0.217-0.97,0.395-1.423s0.402-0.877,0.673-1.27c0.271-0.393,0.59-0.733,0.958-1.021
		c0.368-0.288,0.788-0.515,1.259-0.681c0.471-0.166,0.996-0.249,1.577-0.249c0.38,0,0.722,0.012,1.024,0.037
		c0.302,0.024,0.59,0.05,0.863,0.077s0.544,0.053,0.813,0.077c0.268,0.025,0.559,0.037,0.87,0.037c0.293,0,0.573-0.018,0.842-0.055
		s0.52-0.101,0.754-0.194c0.146,0.288,0.22,0.566,0.22,0.834c0,0.234-0.049,0.427-0.146,0.578c-0.098,0.151-0.227,0.271-0.388,0.359
		c-0.161,0.087-0.348,0.149-0.56,0.183c-0.213,0.034-0.436,0.051-0.67,0.051c-0.195,0-0.39-0.008-0.582-0.025
		s-0.377-0.037-0.553-0.059c-0.175-0.022-0.34-0.045-0.493-0.069c-0.154-0.024-0.292-0.044-0.414-0.059
		c0.156,0.249,0.295,0.516,0.417,0.801c0.122,0.285,0.224,0.577,0.304,0.875c0.081,0.297,0.142,0.599,0.184,0.903
		C18.56,17.204,18.58,17.503,18.58,17.795z M16.824,14.239c-0.122-0.02-0.24-0.033-0.354-0.041
		c-0.115-0.007-0.229-0.011-0.341-0.011c-0.497,0-0.945,0.072-1.343,0.216s-0.751,0.336-1.061,0.578
		c-0.31,0.241-0.576,0.52-0.797,0.834c-0.222,0.315-0.405,0.644-0.549,0.988c-0.144,0.344-0.25,0.69-0.318,1.039
		c-0.068,0.349-0.103,0.677-0.103,0.984c0,0.347,0.045,0.685,0.135,1.014s0.227,0.62,0.41,0.874
		c0.183,0.254,0.414,0.457,0.692,0.611c0.278,0.153,0.604,0.23,0.98,0.23c0.336,0,0.651-0.057,0.944-0.169
		c0.293-0.111,0.563-0.267,0.809-0.464c0.246-0.198,0.467-0.433,0.662-0.703s0.36-0.566,0.494-0.889s0.236-0.663,0.308-1.024
		c0.07-0.361,0.105-0.729,0.105-1.105c0-0.473-0.054-0.959-0.16-1.459C17.229,15.243,17.059,14.741,16.824,14.239z"/>
</g>
<g>
	<path d="M22.852,11.729c0.461-0.333,0.868-0.644,1.222-0.931c0.353-0.287,0.66-0.555,0.921-0.803
		c0.261-0.248,0.479-0.479,0.656-0.691c0.176-0.213,0.318-0.411,0.426-0.594s0.185-0.354,0.229-0.513
		c0.046-0.159,0.068-0.31,0.068-0.453c0-0.24-0.043-0.443-0.13-0.609c-0.087-0.166-0.197-0.3-0.331-0.403s-0.283-0.179-0.447-0.226
		s-0.323-0.07-0.479-0.07c-0.198,0-0.367,0.022-0.507,0.068c-0.14,0.045-0.252,0.106-0.339,0.182
		c-0.087,0.076-0.15,0.164-0.19,0.265c-0.04,0.101-0.061,0.207-0.061,0.317c0,0.16,0.033,0.319,0.1,0.478s0.165,0.292,0.298,0.399
		l-0.017,0.054c-0.154,0.08-0.314,0.12-0.48,0.12c-0.102,0-0.199-0.016-0.293-0.048c-0.095-0.031-0.177-0.079-0.249-0.141
		C23.178,8.067,23.12,7.991,23.077,7.9c-0.043-0.091-0.063-0.195-0.063-0.311c0-0.166,0.04-0.322,0.12-0.47
		c0.079-0.147,0.187-0.283,0.32-0.406c0.134-0.123,0.289-0.232,0.466-0.329s0.36-0.178,0.553-0.244
		c0.191-0.066,0.386-0.117,0.581-0.153c0.196-0.036,0.381-0.054,0.555-0.054c0.251,0,0.486,0.033,0.706,0.099
		c0.22,0.066,0.41,0.163,0.571,0.288s0.288,0.279,0.381,0.461c0.092,0.182,0.139,0.389,0.139,0.621c0,0.168-0.022,0.341-0.066,0.518
		c-0.044,0.177-0.119,0.362-0.226,0.557c-0.106,0.195-0.248,0.401-0.427,0.619c-0.178,0.218-0.401,0.45-0.672,0.697
		s-0.591,0.511-0.961,0.793c-0.369,0.281-0.8,0.585-1.291,0.911l0.008,0.021c0.26-0.069,0.524-0.131,0.795-0.187
		c0.271-0.055,0.532-0.103,0.786-0.143s0.496-0.07,0.725-0.091c0.229-0.021,0.435-0.031,0.617-0.031c0.151,0,0.287,0.01,0.407,0.031
		c0.12,0.021,0.223,0.053,0.309,0.098c0.086,0.044,0.151,0.101,0.196,0.172c0.046,0.07,0.068,0.154,0.068,0.25
		c0,0.127-0.04,0.282-0.12,0.464c-0.397-0.039-0.782-0.066-1.156-0.083s-0.757-0.025-1.149-0.025c-0.364,0-0.737,0.01-1.121,0.029
		c-0.384,0.019-0.795,0.047-1.233,0.083L22.852,11.729z"/>
</g>
</svg>
