<?xml version="1.0" standalone="no"?><!DOCTYPE svg PUBLIC "-//W3C//DTD SVG 1.1//EN" "http://www.w3.org/Graphics/SVG/1.1/DTD/svg11.dtd"><svg class="icon" width="200px" height="200.00px" viewBox="0 0 1024 1024" version="1.1" xmlns="http://www.w3.org/2000/svg"><path d="M689.40065 101.177283h235.459168v901.092626H99.140689V101.177283H340.711414" fill="#F7F8F9" /><path d="M696.296935 109.284119l-0.189592-0.297062v-5.072348h-3.163248l-50.716388-82.185632H381.708927l-50.673806 82.185632H327.93676v4.988198l-0.253465 0.381212h0.253465v74.397148h368.170583v-74.397148z" fill="#AEBCC4" /><path d="M924.859818 1024H99.140689C87.131501 1024 77.411612 1014.281125 77.411612 1002.269909V101.177283c0-12.010202 9.718875-21.729077 21.730091-21.729077H340.711414v43.459168H120.87078v857.633458H903.130741V122.907374H689.40065V79.448206h235.459168c12.009188 0 21.728063 9.718875 21.728063 21.729077v901.092626c0 12.011216-9.718875 21.730091-21.728063 21.730091z" fill="#43525B" /><path d="M696.107343 205.410345H327.93676c-12.010202 0-21.729077-9.717861-21.729077-21.729078v-71.744887c-0.233188-1.888824-0.255493-3.777648 0-5.64518v-2.376491c0-8.06324 4.392048-15.108562 10.928412-18.863905l46.068848-74.716515A21.745299 21.745299 0 0 1 381.707913 0h260.519794a21.7088 21.7088 0 0 1 18.482693 10.312998l46.092166 74.673933c6.59821 3.734051 11.033853 10.821956 11.033854 18.928792v3.755342a24.579042 24.579042 0 0 1 0 3.055779v72.954423c0 12.011216-9.719889 21.730091-21.729077 21.730091z m-346.440492-43.458155h324.709387v-46.749148l-44.265188-71.743874H393.847889l-44.180024 71.639446v46.853576zM838.833679 857.718622H150.749275v-43.459169h688.084404v43.459169z" fill="#43525B" /><path d="M252.753869 916.24377H209.294701V228.159366h43.458154v688.084404z" fill="#43525B" /><path d="M316.159747 768.848602a21.676356 21.676356 0 0 1-11.777014-3.480586c-10.07981-6.513046-12.965259-19.968-6.4512-30.046796 24.212024-37.454067 85.623636-124.605592 132.922297-124.605592 26.844008 0 44.011723 27.246511 60.606606 53.602851 6.662083 10.567477 17.526622 27.819343 23.702051 32.212404 27.50099-8.891564 26.228594-96.233695 25.273537-160.425315-1.40217-95.723723-2.717149-186.121632 53.92019-210.35596 36.604451-15.637798 62.088871 26.568238 84.667564 63.660356 10.01695 16.425568 28.626376 46.982337 37.539232 49.380119 21.347865-1.994265 53.579533-104.085038 65.399129-210.143049 1.358574-11.90476 11.990939-20.350226 24.022431-19.182258 11.927065 1.336269 20.499263 12.095366 19.182258 24.020404-8.104808 72.657362-34.651754 242.334162-105.719382 248.552174-33.123865 2.842867-55.702558-34.165101-77.536064-70.006114-9.190653-15.108562-24.214051-39.765671-32.595643-45.261814-27.650028 15.958178-26.418186 100.456428-25.422575 168.699437 1.466044 99.14145 2.843881 192.785743-63.254812 204.372151-29.454701 5.092626-48.935034-25.379992-65.95371-52.349719-7.277497-11.586408-19.501624-30.98259-25.569585-33.592269-13.347485 0.382226-59.310891 50.312871-94.684514 105.018804-4.159873 6.429909-11.140309 9.930772-18.270796 9.930772z" fill="#FFAB00" /></svg>