<?xml version="1.0" standalone="no"?><!DOCTYPE svg PUBLIC "-//W3C//DTD SVG 1.1//EN" "http://www.w3.org/Graphics/SVG/1.1/DTD/svg11.dtd"><svg t="1510669188465" class="icon" style="" viewBox="0 0 1024 1024" version="1.1" xmlns="http://www.w3.org/2000/svg" p-id="4365" xmlns:xlink="http://www.w3.org/1999/xlink" width="32" height="32"><defs><style type="text/css"></style></defs><path d="M896.2 927.3H128.7c-17.7 0-32-14.3-32-32s14.3-32 32-32h767.5c17.7 0 32 14.3 32 32s-14.4 32-32 32zM187.2 799.8c-17.7 0-32-14.3-32-32v-384c0-17.7 14.3-32 32-32s32 14.3 32 32v384c0 17.7-14.3 32-32 32zM320.1 799.8c-17.7 0-32-14.3-32-32v-576c0-17.7 14.3-32 32-32s32 14.3 32 32v576c0 17.7-14.4 32-32 32zM450.8 799.8c-17.7 0-32-14.3-32-32V448.2c0-17.7 14.3-32 32-32s32 14.3 32 32v319.6c0 17.7-14.3 32-32 32zM576.1 799.8c-17.7 0-32-14.3-32-32V128c0-17.7 14.3-32 32-32s32 14.3 32 32v639.8c0 17.7-14.3 32-32 32zM707.5 799.8c-17.7 0-32-14.3-32-32V277.9c0-17.7 14.3-32 32-32s32 14.3 32 32v489.9c0 17.7-14.4 32-32 32zM828.5 799.8c-17.7 0-32-14.3-32-32V576c0-17.7 14.3-32 32-32s32 14.3 32 32v191.8c0 17.7-14.3 32-32 32z" p-id="4366" fill="#d81e06"></path></svg>