<?xml version="1.0" encoding="utf-8"?>
<!-- Generator: Adobe Illustrator 16.0.0, SVG Export Plug-In . SVG Version: 6.00 Build 0)  -->
<!DOCTYPE svg PUBLIC "-//W3C//DTD SVG 1.1//EN" "http://www.w3.org/Graphics/SVG/1.1/DTD/svg11.dtd">
<svg version="1.1" id="图层_1" xmlns="http://www.w3.org/2000/svg" xmlns:xlink="http://www.w3.org/1999/xlink" x="0px" y="0px"
	 width="32px" height="32px" viewBox="0 0 32 32" enable-background="new 0 0 32 32" xml:space="preserve">
<g id="bk">
	<g id="_x33_d">
		<g>
			<line fill="none" stroke="#000000" stroke-linecap="round" stroke-miterlimit="10" x1="3" y1="5.073" x2="3" y2="29.375"/>
		</g>
	</g>
	<g>
		<g>
			<line fill="none" stroke="#000000" stroke-linecap="round" stroke-miterlimit="10" x1="3" y1="29.375" x2="27.177" y2="29.375"/>
		</g>
	</g>
	<g>
		<g>
			
				<line fill="none" stroke="#000000" stroke-linecap="round" stroke-miterlimit="10" x1="3.375" y1="29.375" x2="15.042" y2="11.426"/>
		</g>
	</g>
</g>
<g id="stft">
	<polyline fill="none" stroke="#C30D23" stroke-linecap="round" stroke-miterlimit="10" points="12.188,15.688 13.938,15.688 
		14.813,14.375 15.625,15.688 17.063,15.594 18.563,15.375 19.938,14.438 20.688,15.688 21.5,9.688 22.688,14.813 23.813,13.75 
		24.813,16 25.875,14.25 27.188,15.188 28.438,14.438 28.438,14.438 29.313,16 30.438,15.25 	"/>
	<path fill="none" stroke="#C30D23" stroke-linecap="round" stroke-miterlimit="10" d="M9.875,19.375l2.313-0.813l1,1.5l1.5-1
		l1.688,0.688l1-4.938l0.5,4.938L19,19.375l1.301,0.834L21,21l0.938-1.625l0.875,0.875L24.375,19l1.563,1.563l1.188-1.188
		c0,0,0.813,0.688,1,0.813"/>
	<path fill="none" stroke="#C30D23" stroke-linecap="round" stroke-miterlimit="10" d="M6.672,24.303l1.14,0.947l1.063-1.5
		l0.563,1.5l0.875-1.5l0.375,0.938l1.5-0.875l0.625,1.438l1.587-6.442l1.101,6.067l0.875-1.688L17,24.5l0.688-1.063l0.688,0.688
		l1.063-1.063l0.938,2.188l0.375-1.063L22,25.563c0,0,1-1.75,1.188-1.75c0.188,0,1.875,0.813,1.875,0.813l0,0"/>
</g>
</svg>
