<?xml version="1.0" encoding="utf-8"?>
<!-- Generator: Adobe Illustrator 16.0.0, SVG Export Plug-In . SVG Version: 6.00 Build 0)  -->
<!DOCTYPE svg PUBLIC "-//W3C//DTD SVG 1.1//EN" "http://www.w3.org/Graphics/SVG/1.1/DTD/svg11.dtd">
<svg version="1.1" xmlns="http://www.w3.org/2000/svg" xmlns:xlink="http://www.w3.org/1999/xlink" x="0px" y="0px" width="32px"
	 height="32px" viewBox="0 0 32 32" enable-background="new 0 0 32 32" xml:space="preserve">
<g id="bk">
	<g id="_x33_d">
		<g>
			<line fill="none" stroke="#000000" stroke-linecap="round" stroke-miterlimit="10" x1="3" y1="5.073" x2="3" y2="29.375"/>
			<g>
				<path d="M3,5.792l1.441,0.876l0.032-0.049l-0.933-2.35C3.36,3.45,3.18,2.631,3,1.813C2.82,2.631,2.64,3.45,2.459,4.269
					l-0.933,2.35l0.024,0.049L3,5.792z"/>
			</g>
		</g>
	</g>
	<g>
		<g>
			<line fill="none" stroke="#000000" stroke-linecap="round" stroke-miterlimit="10" x1="3" y1="29.375" x2="27.177" y2="29.375"/>
			<g>
				<path d="M26.459,29.375l-0.877-1.441l0.049-0.032l2.351,0.934c0.818,0.18,1.638,0.359,2.456,0.54
					c-0.818,0.18-1.638,0.36-2.456,0.54l-2.351,0.934l-0.049-0.024L26.459,29.375z"/>
			</g>
		</g>
	</g>
	<g>
		<g>
			<line fill="none" stroke="#000000" stroke-miterlimit="10" x1="3.375" y1="29.375" x2="15.042" y2="11.426"/>
			<g>
				<path d="M14.749,11.877l-1.265-0.038v-0.044l1.547-1.096c0.448-0.441,0.896-0.882,1.344-1.324
					c-0.221,0.588-0.443,1.177-0.664,1.766L15.337,13l-0.036,0.021L14.749,11.877z"/>
			</g>
		</g>
	</g>
</g>
<g id="stft">
	<polyline fill="none" stroke="#C30D23" stroke-linecap="round" stroke-miterlimit="10" points="12.188,15.688 13.938,15.688 
		14.813,14.375 15.625,15.688 17.063,15.594 18.563,15.375 19.938,14.438 20.688,15.688 21.5,9.688 22.688,14.813 23.813,13.75 
		24.813,16 25.875,14.25 27.188,15.188 28.438,14.438 28.438,14.438 29.313,16 30.438,15.25 	"/>
	<path fill="none" stroke="#C30D23" stroke-linecap="round" stroke-miterlimit="10" d="M9.875,19.375l2.313-0.813l1,1.5l1.5-1
		l1.688,0.688l1-4.938l0.5,4.938L19,19.375l1.301,0.834L21,21l0.938-1.625l0.875,0.875L24.375,19l1.563,1.563l1.188-1.188
		c0,0,0.813,0.688,1,0.813"/>
	<path fill="none" stroke="#C30D23" stroke-linecap="round" stroke-miterlimit="10" d="M6.672,24.303l1.14,0.947l1.063-1.5
		l0.563,1.5l0.875-1.5l0.375,0.938l1.5-0.875l0.625,1.438l1.587-6.442l1.101,6.067l0.875-1.688L17,24.5l0.688-1.063l0.688,0.688
		l1.063-1.063l0.938,2.188l0.375-1.063L22,25.563c0,0,1-1.75,1.188-1.75s1.875,0.813,1.875,0.813l0,0"/>
</g>
</svg>
